<?xml version="1.0" encoding="UTF-8" standalone="no"?>
<!-- Created with Inkscape (http://www.inkscape.org/) -->

<svg
   xmlns:dc="http://purl.org/dc/elements/1.1/"
   xmlns:cc="http://creativecommons.org/ns#"
   xmlns:rdf="http://www.w3.org/1999/02/22-rdf-syntax-ns#"
   xmlns:svg="http://www.w3.org/2000/svg"
   xmlns="http://www.w3.org/2000/svg"
   xmlns:sodipodi="http://sodipodi.sourceforge.net/DTD/sodipodi-0.dtd"
   xmlns:inkscape="http://www.inkscape.org/namespaces/inkscape"
   width="200"
   height="110.24418"
   viewBox="0 0 200 110.24418"
   id="svg2"
   version="1.1"
   inkscape:version="0.91 r13725"
   sodipodi:docname="logo-negative2.svg"
   inkscape:export-filename="/home/troggy/projects/clients/guillerme/logo-negative.png"
   inkscape:export-xdpi="90"
   inkscape:export-ydpi="90">
  <sodipodi:namedview
     id="base"
     pagecolor="#ffffff"
     bordercolor="#666666"
     borderopacity="1.0"
     inkscape:pageopacity="0"
     inkscape:pageshadow="2"
     inkscape:zoom="2.8"
     inkscape:cx="46.935367"
     inkscape:cy="32.279541"
     inkscape:document-units="px"
     inkscape:current-layer="svg2"
     showgrid="true"
     units="px"
     inkscape:window-width="1366"
     inkscape:window-height="744"
     inkscape:window-x="0"
     inkscape:window-y="24"
     inkscape:window-maximized="1"
     showguides="false"
     fit-margin-top="0"
     fit-margin-left="0"
     fit-margin-right="0"
     fit-margin-bottom="0"
     inkscape:snap-page="true">
    <inkscape:grid
       originy="-30.555756"
       originx="-2.852875"
       id="grid3360"
       type="xygrid" />
  </sodipodi:namedview>
  <defs
     id="defs4" />
  <metadata
     id="metadata7">
    <rdf:RDF>
      <cc:Work
         rdf:about="">
        <dc:format>image/svg+xml</dc:format>
        <dc:type
           rdf:resource="http://purl.org/dc/dcmitype/StillImage" />
        <dc:title></dc:title>
      </cc:Work>
    </rdf:RDF>
  </metadata>
  <g
     transform="translate(-2.852875,-911.56223)"
     id="layer1"
     inkscape:groupmode="layer"
     inkscape:label="Layer 1">
    <g
       id="text3352"
       style="font-style:normal;font-variant:normal;font-weight:900;font-stretch:normal;font-size:98.37324524px;line-height:125%;font-family:Lato;-inkscape-font-specification:'Lato Heavy';letter-spacing:0px;word-spacing:0px;opacity:0.95;fill:#f2f2f2;fill-opacity:0.94117647;stroke:none;stroke-width:1px;stroke-linecap:butt;stroke-linejoin:miter;stroke-opacity:1"
       transform="scale(0.9912075,1.0088705)" />
    <g
       transform="matrix(0.44587688,0,0,0.40014551,-6.3525559,906.8446)"
       id="g4670">
      <g
         id="Layer_1" />
      <g
         id="Layer_2">
        <g
           id="g4644">
          <path
             style="fill:#9c9c9c"
             inkscape:connector-curvature="0"
             d="m 469.2,238.1 c 0,-8.7 -7.1,-15.8 -15.8,-15.8 -8.7,0 -15.8,7.1 -15.8,15.8 0,5.8 3.2,10.9 7.9,13.6 -0.6,2.4 -1.4,4.5 -2.6,6.2 -1.4,2 -3.5,3.4 -6.5,4.5 -3.3,1.1 -7.9,1.6 -13.7,1.6 l -65,0 c 0.7,-9 2.4,-16.1 5.1,-23.6 3.1,-8.8 7.1,-17.4 11.8,-25.5 4.7,-8.2 10.2,-16.3 16.2,-24 6.2,-7.9 12.4,-15.7 18.5,-23.4 6.1,-7.3 12.1,-14.7 17.8,-22.1 5.7,-7.4 10.8,-15 15.4,-22.5 4.6,-7.6 8.5,-15.5 11.2,-23.5 2.7,-8.1 4.4,-16.6 4.4,-25.2 l 0,-5.3 c 0,-3.1 -0.6,-6.8 -1.5,-11 -0.8,-4.2 -2.4,-8.7 -4.5,-13.4 C 450,39.7 446.9,35.1 443,31 433.4,20.7 419.9,15.4 402.9,15.4 c -17.3,0 -30.6,5.3 -39.5,15.7 -1.4,1.6 -2.5,3.3 -3.6,5 -9.8,0.4 -17.5,8.5 -17.5,18.3 0,6.1 2.9,11.4 7.5,14.8 l -33.7,165.6 -40.2,-196 c 2.7,-2.8 4.3,-6.6 4.3,-10.8 0,-8.7 -7.1,-15.6 -15.8,-15.6 -5.2,0 -9.8,2.6 -12.6,6.6 l -54.8,0 0,0 -45.6,0 c -4.2,0 -6.5,2.4 -6.5,6.6 l 0,128.4 -6.2,0 c -1.7,-6 -5.8,-10 -11.8,-11.9 l 0,-117.9 c 0,-4.4 -2.1,-7.3 -6.5,-7.3 -4.4,0 -6.5,2.9 -6.5,7.3 l 0,118.7 c -6,3 -10.1,9.2 -10.1,16.4 0,7.2 4.1,13.4 10.1,16.4 l 0,40.4 -0.5,0.5 c 0.2,4.3 -0.4,8.5 -1.3,12.6 -0.6,3.6 -1.9,7.5 -3.5,11.5 -1.6,3.9 -3.9,7.5 -6.8,10.8 -4.1,4.4 -9.2,7.4 -15.3,9.1 -2.8,-4.3 -7.7,-7.1 -13.2,-7.1 -5.6,0 -10.6,3 -13.4,7.4 -6.2,-1.6 -11.3,-4.6 -15.3,-9 -3.1,-3.6 -5.5,-7.4 -7.1,-11.5 -1.6,-4.2 -2.6,-8.2 -3.1,-12 l 0,-0.3 c -0.8,-4.2 -1.1,-8.8 -0.6,-13.4 l 0,-190.8 c 0,-4.2 -2,-6.9 -6.5,-6.9 -4.4,0 -6.5,2.7 -6.5,6.9 l 0,195.7 c 0,3.4 -0.5,7.4 0.3,12.1 0.7,4.7 1.7,9.7 3.7,15 2.1,5.4 5.1,10.5 9.2,14.8 6.4,7.1 14.6,11.7 24.7,13.9 2.4,5.7 7.9,9.8 14.5,9.8 6.7,0 12.4,-4.2 14.7,-10.1 9.7,-2.2 17.7,-6.8 24,-13.5 4.2,-4.4 7.4,-9.3 9.5,-14.5 2,-5 3.3,-9.8 4.2,-14.2 1,-4.5 1.2,-8.3 1.2,-11.6 l 0,-44.7 c 6,-1.5 7.9,-4.3 10,-8 l 8,0.1 0,99.3 c 0,4.2 3.1,6.9 7.3,6.9 4.4,0 7.7,-2.7 7.7,-6.9 l 0,-99 44.8,0 c 0.2,0 0.4,-0.2 0.6,-0.2 l 44.7,101.7 c 1.3,2.6 3.6,3.5 6.6,3.5 l 2.2,0 0.7,0.1 c 1.7,-0.9 3,-2 3.6,-3.7 0.7,-1.8 0.6,-3.6 -0.2,-5.3 l -43.6,-99.9 c 8,-3.9 15.4,-10.7 22.1,-20.6 4.5,-7.2 8.1,-15.3 10.6,-24.1 2.5,-8.9 3.7,-17.9 3.7,-26.9 0,-9.2 -1.3,-18.4 -3.7,-27.2 -2.5,-8.9 -6,-17.5 -10.6,-24.7 -2.2,-3.4 -4.6,-5.8 -7.2,-9.8 l 15.3,0 c 1.9,6 6.8,10.2 12.7,11.1 l 43.1,211.6 c -4.1,3.4 -6.7,8.6 -6.7,14.3 0,10.2 8.2,18.4 18.4,18.4 10.2,0 18.4,-8.2 18.4,-18.4 0,-6.6 -3.5,-12.3 -8.7,-15.6 L 363.5,72.1 c 8.7,-1.5 15.3,-9 15.3,-18.1 0,-5.1 -2.1,-9.7 -5.4,-13.1 0.3,-0.4 0.7,-0.9 1,-1.3 5.9,-6.9 15.4,-10.5 28.3,-10.5 12.9,0 22.5,3.6 29.4,10.9 2.9,3.1 5.1,6.5 6.5,10.2 1.5,3.9 2.6,7.7 3.3,11.2 0.8,3.8 1.2,7.6 1,11.4 l 0,0.5 c 0,7.4 -1.2,14.6 -3.6,21.6 -2.4,7.1 -5.7,14.1 -9.8,21 -4.2,7 -9,14 -14.4,21 -5.4,7 -11,14.1 -16.8,21.2 -6.7,8.1 -13.3,16.4 -19.7,24.7 -6.5,8.5 -12.4,17.3 -17.4,26.3 -6.1,10.5 -10.6,21 -13.6,31 -2.9,10.1 -4.4,20.3 -4.4,30.7 0,4.2 2.7,6.8 6.9,6.8 l 72.6,0 c 7.8,0 14.1,-0.7 19.1,-2.6 5.2,-1.9 9.4,-5 12.6,-9.2 2.9,-3.9 4.7,-8.5 5.5,-13.7 0,0 0,0 0,0 5.5,-2.2 9.3,-7.6 9.3,-14 z M 160,32 l 37.1,0 0,0 9.6,0 c 3.5,0 7,2.3 10.6,4.7 4.4,3 8.5,7.6 12.1,13.2 3.7,5.9 6.6,12.8 8.7,20.3 2.1,7.6 3.1,15.5 3.1,23.4 0,7.7 -1.1,15.4 -3.1,23 -2.1,7.6 -5,14.4 -8.7,20.2 -3.6,5.6 -7.7,9.9 -12.1,12.9 -4.2,2.9 -8.4,4.3 -12.5,4.3 l -44.8,0 0,-122 z"
             id="path4646" />
          <path
             style="fill:#555555"
             inkscape:connector-curvature="0"
             d="m 465.7,238.1 c 0,-6.8 -5.5,-12.3 -12.3,-12.3 -6.8,0 -12.3,5.5 -12.3,12.3 0,5.4 3.5,9.9 8.3,11.6 0,0.1 0,0.2 0,0.2 -0.6,4 -1.8,7.3 -3.6,10 -1.8,2.6 -4.6,4.8 -8.3,6 -3.7,1.3 -8.6,2.1 -14.8,2.1 l -68.7,0 c 0.5,-11 2.3,-19.5 5.5,-28.5 3.2,-9.1 7.2,-17.9 12,-26.2 4.8,-8.4 10.3,-16.5 16.5,-24.5 6.2,-7.9 12.4,-15.8 18.6,-23.6 6.2,-7.3 12.1,-14.7 17.7,-22 5.6,-7.3 10.7,-14.7 15.1,-22.2 4.5,-7.4 8.5,-15.1 11.1,-22.9 2.6,-7.8 4.4,-15.8 4.4,-24.1 0,-0.7 0,-2.5 0,-5.3 0,-2.9 -0.9,-6.3 -1.7,-10.3 -0.8,-4 -2.4,-8.3 -4.4,-12.7 -1.9,-4.5 -4.9,-8.6 -8.5,-12.6 -8.9,-9.6 -21.5,-14.4 -37.5,-14.4 -16.3,0 -28.6,4.8 -36.8,14.4 -1.7,2 -3.2,4.1 -4.4,6.3 -0.4,0 -0.7,-0.1 -1.1,-0.1 -8.2,0 -14.9,6.7 -14.9,14.9 0,5.7 3.2,10.6 7.9,13.1 L 315.8,252.1 272.1,37.6 c 2.8,-2.2 4.6,-5.7 4.6,-9.6 0,-6.8 -5.5,-12.3 -12.3,-12.3 -4.6,0 -8.7,3.3 -10.7,6.3 l -53.1,0 0,0 -49.1,0 c -2.3,0 -3.5,1.3 -3.5,3.6 l 0,132.4 -12,0 c -0.8,-8 -5,-12.1 -11,-13.3 l 0,-120.5 c 0,-2.5 -1.5,-3.8 -4,-3.8 -2.5,0 -4,1.3 -4,3.8 l 0,121 c -5,2 -10.1,7.5 -10.1,14.1 0,6.5 5.1,12.1 10.1,14.1 l 0,42.7 0,0.3 c 0,4.6 -0.4,9.1 -1.3,13.4 -0.7,3.9 -2,8 -3.8,12.2 -1.7,4.2 -4.3,8.2 -7.5,11.9 -5.1,5.5 -11.7,9 -19.6,10.8 -1.8,-4.5 -6.2,-7.6 -11.4,-7.6 -5.2,0 -9.7,3.3 -11.4,7.9 -8.2,-1.6 -14.8,-5.1 -19.9,-10.7 -3.4,-3.9 -6,-8.1 -7.7,-12.6 -1.7,-4.5 -2,-8.8 -2.5,-12.9 C 31,224.2 32,219.4 32,214.4 L 32,214 32,23.9 c 0,-2.3 -1.5,-3.4 -4,-3.4 -2.5,0 -4,1.1 -4,3.4 l 0,189.8 c 0,0.7 0,2.6 0,5.8 0,3.2 -0.2,7.1 0.5,11.5 0.7,4.5 1.7,9.2 3.7,14.3 1.9,5 4.7,9.6 8.6,13.8 6.3,7 14.6,11.4 24.8,13.2 1.3,5.3 6.1,9.3 11.9,9.3 5.8,0 10.7,-4.1 11.9,-9.6 9.9,-1.9 17.9,-6.2 24.1,-12.9 3.9,-4.1 6.8,-8.6 8.8,-13.4 1.9,-4.8 3.9,-9.3 4.8,-13.6 0.9,-4.2 1.9,-7.8 1.9,-10.8 0,-3 0,-4.7 0,-5.2 l 0,-42.1 c 4,-0.9 8.5,-4.3 10.4,-8.8 l 12.6,0.2 0,102.6 c 0,2.3 1.5,3.4 3.8,3.4 2.5,0 4.2,-1.1 4.2,-3.4 l 0,-102 48.8,0 c 1.1,0 2.1,-0.5 2.8,-0.8 l 45.7,103.6 c 0.7,1.4 1.8,1.1 3.4,1.1 l 1.4,0 c 0.9,0 1.5,-0.4 1.9,-1.3 0.3,-0.9 0.3,-1.5 -0.2,-2.4 l -45,-103 c 8.7,-3.2 16.6,-10 23.7,-20.5 4.4,-6.9 7.7,-14.6 10.1,-23.2 2.4,-8.6 3.6,-17.2 3.6,-25.9 0,-8.9 -1.2,-17.7 -3.6,-26.3 -2.4,-8.6 -5.8,-16.6 -10.1,-23.4 -4,-6.1 -8.4,-11.9 -13.3,-14.9 l 27.1,0 c 0.7,5 5.9,11 12.2,11 0.2,0 0.5,0.1 0.7,0.1 l 44.1,216.4 c -4.3,2.6 -7.1,7.3 -7.1,12.7 0,8.2 6.7,14.9 14.9,14.9 8.2,0 14.9,-6.7 14.9,-14.9 0,-6.2 -3.8,-11.5 -9.1,-13.7 L 360.8,69.2 c 8.2,-0.1 14.8,-6.7 14.8,-14.9 0,-5.2 -2.7,-9.7 -6.7,-12.4 0.9,-1.5 1.9,-2.9 3.1,-4.2 6.7,-7.8 17,-11.7 31,-11.7 13.8,0 24.4,4 32,12 3.2,3.4 5.6,7.2 7.2,11.3 1.6,4.1 2.5,8 3.2,11.7 0.9,4.1 2.8,8.3 0.8,12.4 l 0,0.3 c 0,7.8 -1,15.4 -3.5,22.7 -2.5,7.3 -5.8,14.6 -10,21.7 -4.2,7.1 -9,14.2 -14.6,21.3 -5.5,7.1 -11.1,14.2 -16.8,21.3 -6.7,8 -13.2,16.2 -19.6,24.6 -6.4,8.4 -12.1,17 -17.2,26 -6,10.3 -10.4,20.4 -13.2,30.3 -2.9,9.9 -4.3,19.4 -4.3,29.5 0,2.3 1.1,3 3.4,3 l 72.6,0 c 7.3,0 13.3,-0.4 17.9,-2.1 4.6,-1.7 8.3,-4.2 11,-7.9 2.5,-3.4 4.1,-7.4 4.8,-12.1 0.1,-0.7 0.2,-1.3 0.3,-2 4.9,-1.6 8.7,-6.3 8.7,-11.9 z M 219.2,34.1 c 4.8,3.3 9.2,8.1 13.1,14 3.9,6.2 6.9,13.3 9.1,21.2 2.2,7.9 3.3,16 3.3,24.3 0,8 -1.1,16 -3.3,23.9 -2.2,7.9 -5.2,15 -9.1,21.2 -3.9,6 -8.3,10.8 -13.1,14.1 -4.8,3.3 -9.6,5.2 -14.4,5.2 l -48.8,0 0,-129 44.6,0 0,0 6.3,0 c 4.1,0 8.2,2.3 12.3,5.1 z"
             id="path4648" />
          <g
             id="g4650">
            <circle
               style="fill:#e0e0e0"
               cx="73.400002"
               cy="269.29999"
               r="7.9000001"
               id="circle4652" />
            <circle
               style="fill:#e0e0e0"
               cx="317"
               cy="269.20001"
               r="10.5"
               id="circle4654" />
            <circle
               style="fill:#e0e0e0"
               cx="121.2"
               cy="159.3"
               r="10.5"
               id="circle4656" />
            <circle
               style="fill:#e0e0e0"
               cx="264.5"
               cy="28"
               r="7.9000001"
               id="circle4658" />
            <circle
               style="fill:#e0e0e0"
               cx="360.60001"
               cy="54.299999"
               r="10.5"
               id="circle4660" />
            <circle
               style="fill:#e0e0e0"
               cx="453.39999"
               cy="238.10001"
               r="7.9000001"
               id="circle4662" />
          </g>
        </g>
      </g>
    </g>
  </g>
</svg>
