<?xml version="1.0" encoding="utf-8"?>
<!-- Generator: Adobe Illustrator 18.0.0, SVG Export Plug-In . SVG Version: 6.00 Build 0)  -->
<!DOCTYPE svg PUBLIC "-//W3C//DTD SVG 1.1//EN" "http://www.w3.org/Graphics/SVG/1.1/DTD/svg11.dtd">
<svg version="1.1" xmlns="http://www.w3.org/2000/svg" xmlns:xlink="http://www.w3.org/1999/xlink" x="0px" y="0px"
	 viewBox="0 0 490 300" enable-background="new 0 0 490 300" xml:space="preserve">
<g id="Layer_1">
</g>
<g id="Layer_2">
	<g>
		<path fill="#77A5CF" d="M469.2,238.1c0-8.7-7.1-15.8-15.8-15.8c-8.7,0-15.8,7.1-15.8,15.8c0,5.8,3.2,10.9,7.9,13.6
			c-0.6,2.4-1.4,4.5-2.6,6.2c-1.4,2-3.5,3.4-6.5,4.5c-3.3,1.1-7.9,1.6-13.7,1.6h-65c0.7-9,2.4-16.1,5.1-23.6
			c3.1-8.8,7.1-17.4,11.8-25.5c4.7-8.2,10.2-16.3,16.2-24c6.2-7.9,12.4-15.7,18.5-23.4c6.1-7.3,12.1-14.7,17.8-22.1
			c5.7-7.4,10.8-15,15.4-22.5c4.6-7.6,8.5-15.5,11.2-23.5c2.7-8.1,4.4-16.6,4.4-25.2v-5.3c0-3.1-0.6-6.8-1.5-11
			c-0.8-4.2-2.4-8.7-4.5-13.4c-2.1-4.8-5.2-9.4-9.1-13.5c-9.6-10.3-23.1-15.6-40.1-15.6c-17.3,0-30.6,5.3-39.5,15.7
			c-1.4,1.6-2.5,3.3-3.6,5c-9.8,0.4-17.5,8.5-17.5,18.3c0,6.1,2.9,11.4,7.5,14.8l-33.7,165.6L275.9,38.8c2.7-2.8,4.3-6.6,4.3-10.8
			c0-8.7-7.1-15.6-15.8-15.6c-5.2,0-9.8,2.6-12.6,6.6h-54.8l0,0h-45.6c-4.2,0-6.5,2.4-6.5,6.6V154h-6.2c-1.7-6-5.8-10-11.8-11.9
			V24.2c0-4.4-2.1-7.3-6.5-7.3s-6.5,2.9-6.5,7.3v118.7c-6,3-10.1,9.2-10.1,16.4c0,7.2,4.1,13.4,10.1,16.4v40.4l-0.5,0.5
			c0.2,4.3-0.4,8.5-1.3,12.6c-0.6,3.6-1.9,7.5-3.5,11.5c-1.6,3.9-3.9,7.5-6.8,10.8c-4.1,4.4-9.2,7.4-15.3,9.1
			c-2.8-4.3-7.7-7.1-13.2-7.1c-5.6,0-10.6,3-13.4,7.4c-6.2-1.6-11.3-4.6-15.3-9c-3.1-3.6-5.5-7.4-7.1-11.5c-1.6-4.2-2.6-8.2-3.1-12
			l0-0.3c-0.8-4.2-1.1-8.8-0.6-13.4l0-190.8c0-4.2-2-6.9-6.5-6.9c-4.4,0-6.5,2.7-6.5,6.9v195.7c0,3.4-0.5,7.4,0.3,12.1
			c0.7,4.7,1.7,9.7,3.7,15c2.1,5.4,5.1,10.5,9.2,14.8c6.4,7.1,14.6,11.7,24.7,13.9c2.4,5.7,7.9,9.8,14.5,9.8
			c6.7,0,12.4-4.2,14.7-10.1c9.7-2.2,17.7-6.8,24-13.5c4.2-4.4,7.4-9.3,9.5-14.5c2-5,3.3-9.8,4.2-14.2c1-4.5,1.2-8.3,1.2-11.6v-44.7
			c6-1.5,7.9-4.3,10-8l8,0.1V268c0,4.2,3.1,6.9,7.3,6.9c4.4,0,7.7-2.7,7.7-6.9v-99h44.8c0.2,0,0.4-0.2,0.6-0.2l44.7,101.7
			c1.3,2.6,3.6,3.5,6.6,3.5h2.2l0.7,0.1c1.7-0.9,3-2,3.6-3.7c0.7-1.8,0.6-3.6-0.2-5.3l-43.6-99.9c8-3.9,15.4-10.7,22.1-20.6
			c4.5-7.2,8.1-15.3,10.6-24.1c2.5-8.9,3.7-17.9,3.7-26.9c0-9.2-1.3-18.4-3.7-27.2c-2.5-8.9-6-17.5-10.6-24.7
			c-2.2-3.4-4.6-5.8-7.2-9.8h15.3c1.9,6,6.8,10.2,12.7,11.1l43.1,211.6c-4.1,3.4-6.7,8.6-6.7,14.3c0,10.2,8.2,18.4,18.4,18.4
			c10.2,0,18.4-8.2,18.4-18.4c0-6.6-3.5-12.3-8.7-15.6l36.9-181.2c8.7-1.5,15.3-9,15.3-18.1c0-5.1-2.1-9.7-5.4-13.1
			c0.3-0.4,0.7-0.9,1-1.3c5.9-6.9,15.4-10.5,28.3-10.5c12.9,0,22.5,3.6,29.4,10.9c2.9,3.1,5.1,6.5,6.5,10.2
			c1.5,3.9,2.6,7.7,3.3,11.2c0.8,3.8,1.2,7.6,1,11.4l0,0.5c0,7.4-1.2,14.6-3.6,21.6c-2.4,7.1-5.7,14.1-9.8,21c-4.2,7-9,14-14.4,21
			c-5.4,7-11,14.1-16.8,21.2c-6.7,8.1-13.3,16.4-19.7,24.7c-6.5,8.5-12.4,17.3-17.4,26.3c-6.1,10.5-10.6,21-13.6,31
			c-2.9,10.1-4.4,20.3-4.4,30.7c0,4.2,2.7,6.8,6.9,6.8h72.6c7.8,0,14.1-0.7,19.1-2.6c5.2-1.9,9.4-5,12.6-9.2
			c2.9-3.9,4.7-8.5,5.5-13.7c0,0,0,0,0,0C465.4,249.9,469.2,244.5,469.2,238.1z M160,32h37.1l0,0h9.6c3.5,0,7,2.3,10.6,4.7
			c4.4,3,8.5,7.6,12.1,13.2c3.7,5.9,6.6,12.8,8.7,20.3c2.1,7.6,3.1,15.5,3.1,23.4c0,7.7-1.1,15.4-3.1,23c-2.1,7.6-5,14.4-8.7,20.2
			c-3.6,5.6-7.7,9.9-12.1,12.9c-4.2,2.9-8.4,4.3-12.5,4.3H160V32z"/>
		<path fill="#38569E" d="M465.7,238.1c0-6.8-5.5-12.3-12.3-12.3c-6.8,0-12.3,5.5-12.3,12.3c0,5.4,3.5,9.9,8.3,11.6
			c0,0.1,0,0.2,0,0.2c-0.6,4-1.8,7.3-3.6,10c-1.8,2.6-4.6,4.8-8.3,6c-3.7,1.3-8.6,2.1-14.8,2.1H354c0.5-11,2.3-19.5,5.5-28.5
			c3.2-9.1,7.2-17.9,12-26.2c4.8-8.4,10.3-16.5,16.5-24.5c6.2-7.9,12.4-15.8,18.6-23.6c6.2-7.3,12.1-14.7,17.7-22
			c5.6-7.3,10.7-14.7,15.1-22.2c4.5-7.4,8.5-15.1,11.1-22.9c2.6-7.8,4.4-15.8,4.4-24.1c0-0.7,0-2.5,0-5.3c0-2.9-0.9-6.3-1.7-10.3
			c-0.8-4-2.4-8.3-4.4-12.7c-1.9-4.5-4.9-8.6-8.5-12.6c-8.9-9.6-21.5-14.4-37.5-14.4c-16.3,0-28.6,4.8-36.8,14.4
			c-1.7,2-3.2,4.1-4.4,6.3c-0.4,0-0.7-0.1-1.1-0.1c-8.2,0-14.9,6.7-14.9,14.9c0,5.7,3.2,10.6,7.9,13.1l-37.7,184.8L272.1,37.6
			c2.8-2.2,4.6-5.7,4.6-9.6c0-6.8-5.5-12.3-12.3-12.3c-4.6,0-8.7,3.3-10.7,6.3h-53.1l0,0h-49.1c-2.3,0-3.5,1.3-3.5,3.6V158h-12
			c-0.8-8-5-12.1-11-13.3V24.2c0-2.5-1.5-3.8-4-3.8c-2.5,0-4,1.3-4,3.8v121c-5,2-10.1,7.5-10.1,14.1c0,6.5,5.1,12.1,10.1,14.1v42.7
			v0.3c0,4.6-0.4,9.1-1.3,13.4c-0.7,3.9-2,8-3.8,12.2c-1.7,4.2-4.3,8.2-7.5,11.9c-5.1,5.5-11.7,9-19.6,10.8
			c-1.8-4.5-6.2-7.6-11.4-7.6c-5.2,0-9.7,3.3-11.4,7.9c-8.2-1.6-14.8-5.1-19.9-10.7c-3.4-3.9-6-8.1-7.7-12.6
			c-1.7-4.5-2-8.8-2.5-12.9c-0.9-4.6,0.1-9.4,0.1-14.4V214V23.9c0-2.3-1.5-3.4-4-3.4c-2.5,0-4,1.1-4,3.4v189.8c0,0.7,0,2.6,0,5.8
			c0,3.2-0.2,7.1,0.5,11.5c0.7,4.5,1.7,9.2,3.7,14.3c1.9,5,4.7,9.6,8.6,13.8c6.3,7,14.6,11.4,24.8,13.2c1.3,5.3,6.1,9.3,11.9,9.3
			c5.8,0,10.7-4.1,11.9-9.6c9.9-1.9,17.9-6.2,24.1-12.9c3.9-4.1,6.8-8.6,8.8-13.4c1.9-4.8,3.9-9.3,4.8-13.6
			c0.9-4.2,1.9-7.8,1.9-10.8c0-3,0-4.7,0-5.2v-42.1c4-0.9,8.5-4.3,10.4-8.8l12.6,0.2V268c0,2.3,1.5,3.4,3.8,3.4
			c2.5,0,4.2-1.1,4.2-3.4V166h48.8c1.1,0,2.1-0.5,2.8-0.8l45.7,103.6c0.7,1.4,1.8,1.1,3.4,1.1h1.4c0.9,0,1.5-0.4,1.9-1.3
			c0.3-0.9,0.3-1.5-0.2-2.4l-45-103c8.7-3.2,16.6-10,23.7-20.5c4.4-6.9,7.7-14.6,10.1-23.2c2.4-8.6,3.6-17.2,3.6-25.9
			c0-8.9-1.2-17.7-3.6-26.3c-2.4-8.6-5.8-16.6-10.1-23.4c-4-6.1-8.4-11.9-13.3-14.9h27.1c0.7,5,5.9,11,12.2,11
			c0.2,0,0.5,0.1,0.7,0.1l44.1,216.4c-4.3,2.6-7.1,7.3-7.1,12.7c0,8.2,6.7,14.9,14.9,14.9s14.9-6.7,14.9-14.9
			c0-6.2-3.8-11.5-9.1-13.7l37.9-186.3c8.2-0.1,14.8-6.7,14.8-14.9c0-5.2-2.7-9.7-6.7-12.4c0.9-1.5,1.9-2.9,3.1-4.2
			c6.7-7.8,17-11.7,31-11.7c13.8,0,24.4,4,32,12c3.2,3.4,5.6,7.2,7.2,11.3c1.6,4.1,2.5,8,3.2,11.7c0.9,4.1,2.8,8.3,0.8,12.4v0.3
			c0,7.8-1,15.4-3.5,22.7c-2.5,7.3-5.8,14.6-10,21.7c-4.2,7.1-9,14.2-14.6,21.3c-5.5,7.1-11.1,14.2-16.8,21.3
			c-6.7,8-13.2,16.2-19.6,24.6c-6.4,8.4-12.1,17-17.2,26c-6,10.3-10.4,20.4-13.2,30.3c-2.9,9.9-4.3,19.4-4.3,29.5c0,2.3,1.1,3,3.4,3
			h72.6c7.3,0,13.3-0.4,17.9-2.1c4.6-1.7,8.3-4.2,11-7.9c2.5-3.4,4.1-7.4,4.8-12.1c0.1-0.7,0.2-1.3,0.3-2
			C461.9,248.4,465.7,243.7,465.7,238.1z M219.2,34.1c4.8,3.3,9.2,8.1,13.1,14c3.9,6.2,6.9,13.3,9.1,21.2c2.2,7.9,3.3,16,3.3,24.3
			c0,8-1.1,16-3.3,23.9c-2.2,7.9-5.2,15-9.1,21.2c-3.9,6-8.3,10.8-13.1,14.1c-4.8,3.3-9.6,5.2-14.4,5.2H156V29h44.6l0,0h6.3
			C211,29,215.1,31.3,219.2,34.1z"/>
		<g>
			<circle fill="#E0E0E0" cx="73.4" cy="269.3" r="7.9"/>
			<circle fill="#E0E0E0" cx="317" cy="269.2" r="10.5"/>
			<circle fill="#E0E0E0" cx="121.2" cy="159.3" r="10.5"/>
			<circle fill="#E0E0E0" cx="264.5" cy="28" r="7.9"/>
			<circle fill="#E0E0E0" cx="360.6" cy="54.3" r="10.5"/>
			<circle fill="#E0E0E0" cx="453.4" cy="238.1" r="7.9"/>
		</g>
	</g>
</g>
</svg>
