<?xml version="1.0" encoding="UTF-8" standalone="no"?>
<svg
   xmlns:dc="http://purl.org/dc/elements/1.1/"
   xmlns:cc="http://creativecommons.org/ns#"
   xmlns:rdf="http://www.w3.org/1999/02/22-rdf-syntax-ns#"
   xmlns:svg="http://www.w3.org/2000/svg"
   xmlns="http://www.w3.org/2000/svg"
   version="1.1"
   id="svg2"
   viewBox="0 0 110.98973 65.252541"
   height="65.252541"
   width="110.98973">
  <defs
     id="defs4" />
  <metadata
     id="metadata7">
    <rdf:RDF>
      <cc:Work
         rdf:about="">
        <dc:format>image/svg+xml</dc:format>
        <dc:type
           rdf:resource="http://purl.org/dc/dcmitype/StillImage" />
        <dc:title></dc:title>
      </cc:Work>
    </rdf:RDF>
  </metadata>
  <g
     transform="translate(-0.2142858,-960.54512)"
     id="layer1">
    <g
       id="text3352"
       style="font-style:normal;font-variant:normal;font-weight:900;font-stretch:normal;font-size:51.92406845px;line-height:125%;font-family:Lato;-inkscape-font-specification:'Lato Heavy';letter-spacing:0px;word-spacing:0px;fill:#f1f1f1;fill-opacity:1;stroke:none;stroke-width:1px;stroke-linecap:butt;stroke-linejoin:miter;stroke-opacity:1"
       transform="scale(0.9912075,1.0088705)">
      <path
         id="path8071"
         style=""
         d="m 11.507215,966.46336 0,17.08302 q 0,1.99907 0.908672,3.08948 0.908671,1.0904 2.674089,1.0904 1.324064,0 2.466393,-0.5452 1.168292,-0.5452 2.258697,-1.53176 l 0,-19.18594 8.048231,0 0,26.92263 -4.984711,0 q -1.505798,0 -1.973114,-1.35003 l -0.493279,-1.55772 q -0.778861,0.7529 -1.609646,1.37599 -0.830785,0.59712 -1.79138,1.03848 -0.934634,0.41539 -2.025039,0.64905 -1.090406,0.25962 -2.388507,0.25962 -2.206773,0 -3.9202674,-0.7529 -1.6875322,-0.77886 -2.8558238,-2.15485 -1.1682915,-1.37599 -1.7654183,-3.24525 -0.5971268,-1.86927 -0.5971268,-4.102 l 0,-17.08302 8.0482303,0 z" />
      <path
         id="path8073"
         style=""
         d="m 34.098241,993.38599 0,-26.92263 4.777015,0 q 0.597127,0 0.986557,0.10384 0.415393,0.10385 0.675013,0.33751 0.285582,0.2077 0.415393,0.57117 0.155772,0.36346 0.25962,0.88271 l 0.441354,2.51831 q 1.479836,-2.28466 3.323141,-3.60872 1.843304,-1.32406 4.024115,-1.32406 1.843305,0 2.959672,0.88271 l -1.038481,5.91934 q -0.103848,0.5452 -0.415393,0.77886 -0.311544,0.2077 -0.830785,0.2077 -0.441355,0 -1.038481,-0.10385 -0.597127,-0.12981 -1.505798,-0.12981 -3.167369,0 -4.984711,3.37506 l 0,16.51186 -8.048231,0 z" />
      <path
         id="path8075"
         style=""
         d="m 70.398843,993.38599 -7.321294,0 -10.436738,-26.92263 6.698205,0 q 0.856747,0 1.427912,0.41539 0.597127,0.38943 0.804823,0.98656 l 3.738533,12.07234 q 0.441355,1.47984 0.830785,2.88179 0.415393,1.40195 0.700975,2.8039 0.285582,-1.40195 0.700975,-2.8039 0.415393,-1.40195 0.882709,-2.88179 l 3.894305,-12.07234 q 0.207697,-0.59713 0.778861,-0.98656 0.571165,-0.41539 1.350026,-0.41539 l 6.386661,0 -10.436738,26.92263 z" />
      <path
         id="path8077"
         style=""
         d="m 96.710554,955.14391 q 2.8039,0 5.036636,0.83079 2.2587,0.80482 3.84238,2.25869 1.58368,1.45388 2.41447,3.47891 0.85675,1.99908 0.85675,4.41355 0,2.07696 -0.59713,3.84238 -0.57117,1.76542 -1.58369,3.37507 -1.01251,1.58368 -2.36254,3.08948 -1.32406,1.47983 -2.82986,3.01159 l -7.399182,7.58092 q 1.427912,-0.41539 2.8039,-0.64905 1.40195,-0.25962 2.622166,-0.25962 l 7.061676,0 q 1.2981,0 2.051,0.72693 0.7529,0.70098 0.7529,1.86927 l 0,4.67317 -26.585127,0 0,-2.59621 q 0,-0.7529 0.311545,-1.60964 0.311544,-0.85675 1.090405,-1.55773 l 10.904055,-10.98194 q 1.40195,-1.40195 2.440431,-2.67409 1.038481,-1.27213 1.713494,-2.49235 0.675013,-1.24618 1.012517,-2.46639 0.33751,-1.24618 0.33751,-2.62217 0,-2.2587 -1.090406,-3.45295 -1.064444,-1.22022 -3.271217,-1.22022 -0.908671,0 -1.66157,0.25962 -0.752899,0.25963 -1.350026,0.70098 -0.597127,0.44135 -1.038481,1.03848 -0.415393,0.59713 -0.675013,1.2981 -0.415393,1.16829 -1.064443,1.68754 -0.623089,0.51924 -1.713495,0.51924 -0.25962,0 -0.571164,-0.026 -0.285583,-0.026 -0.597127,-0.0779 l -4.257774,-0.7529 q 0.415393,-2.82986 1.583684,-4.93279 1.194254,-2.10292 2.93371,-3.50487 1.765418,-1.40195 4.024115,-2.07697 2.258697,-0.70097 4.854901,-0.70097 z" />
    </g>
    <g
       id="text3356"
       style="font-style:normal;font-variant:normal;font-weight:300;font-stretch:normal;font-size:11.875px;line-height:125%;font-family:Lato;-inkscape-font-specification:'Lato Light';letter-spacing:0px;word-spacing:0px;fill:#f1f1f1;fill-opacity:1;stroke:none;stroke-width:1px;stroke-linecap:butt;stroke-linejoin:miter;stroke-opacity:1">
      <path
         id="path8080"
         style="font-style:normal;font-variant:normal;font-weight:300;font-stretch:normal;font-size:11.875px;font-family:Lato;-inkscape-font-specification:'Lato Light'"
         d="m 7.1613125,1015.0651 q -0.029688,0.03 -0.059375,0.053 -0.02375,0.018 -0.07125,0.018 -0.059375,0 -0.16625,-0.077 -0.1009375,-0.083 -0.273125,-0.1782 -0.1721875,-0.095 -0.4334375,-0.1721 -0.2553125,-0.083 -0.6234375,-0.083 -0.510625,0 -0.9084375,0.1841 -0.391875,0.1781 -0.665,0.5166 -0.2671875,0.3384 -0.4096875,0.8193 -0.1425,0.481 -0.1425,1.0807 0,0.6234 0.1425,1.1043 0.1484375,0.481 0.415625,0.8135 0.2671875,0.3265 0.6471875,0.4987 0.38,0.1722 0.843125,0.1722 0.4275,0 0.7125,-0.1009 0.2909375,-0.101 0.475,-0.2197 0.19,-0.1188 0.296875,-0.2197 0.1128125,-0.1009 0.178125,-0.1009 0.077187,0 0.11875,0.059 l 0.154375,0.19 q -0.1365625,0.1782 -0.344375,0.3325 -0.2078125,0.1544 -0.4690625,0.2672 -0.26125,0.1128 -0.57,0.1722 -0.3028125,0.065 -0.6353125,0.065 -0.5640625,0 -1.033125,-0.2019 -0.463125,-0.2078 -0.8015625,-0.5937 -0.3325,-0.3919 -0.5225,-0.9559 -0.1840625,-0.5641 -0.1840625,-1.2825 0,-0.6769 0.178125,-1.235 0.178125,-0.5582 0.5165625,-0.9619 0.344375,-0.4038 0.8371875,-0.6235 0.49875,-0.2256 1.14,-0.2256 0.5759375,0 1.02125,0.1841 0.45125,0.184 0.78375,0.4987 l -0.1484375,0.2019 z" />
      <path
         id="path8082"
         style="font-style:normal;font-variant:normal;font-weight:300;font-stretch:normal;font-size:11.875px;font-family:Lato;-inkscape-font-specification:'Lato Light'"
         d="m 10.926615,1014.1804 q 0.635313,0 1.134063,0.2197 0.504687,0.2138 0.849062,0.6116 0.344375,0.3978 0.5225,0.9618 0.184063,0.5582 0.184063,1.2529 0,0.6946 -0.184063,1.2528 -0.178125,0.5581 -0.5225,0.9559 -0.344375,0.3978 -0.849062,0.6116 -0.49875,0.2137 -1.134063,0.2137 -0.635312,0 -1.1399998,-0.2137 -0.49875,-0.2138 -0.8490625,-0.6116 -0.344375,-0.3978 -0.5284375,-0.9559 -0.178125,-0.5582 -0.178125,-1.2528 0,-0.6947 0.178125,-1.2529 0.1840625,-0.564 0.5284375,-0.9618 0.3503125,-0.3978 0.8490625,-0.6116 0.5046878,-0.2197 1.1399998,-0.2197 z m 0,5.6347 q 0.528438,0 0.920313,-0.1781 0.397812,-0.1841 0.659062,-0.5225 0.267188,-0.3385 0.397813,-0.8135 0.130625,-0.4809 0.130625,-1.0746 0,-0.5879 -0.130625,-1.0688 -0.130625,-0.4809 -0.397813,-0.8194 -0.26125,-0.3443 -0.659062,-0.5284 -0.391875,-0.1841 -0.920313,-0.1841 -0.528437,0 -0.92625,0.1841 -0.3918748,0.1841 -0.6590623,0.5284 -0.26125,0.3385 -0.3978125,0.8194 -0.130625,0.4809 -0.130625,1.0688 0,0.5937 0.130625,1.0746 0.1365625,0.475 0.3978125,0.8135 0.2671875,0.3384 0.6590623,0.5225 0.397813,0.1781 0.92625,0.1781 z" />
      <path
         id="path8084"
         style="font-style:normal;font-variant:normal;font-weight:300;font-stretch:normal;font-size:11.875px;font-family:Lato;-inkscape-font-specification:'Lato Light'"
         d="m 15.100863,1020.1832 0,-5.9078 0.30875,0 q 0.154375,0 0.178125,0.1485 l 0.05344,0.8906 q 0.40375,-0.5106 0.938125,-0.8194 0.540312,-0.3147 1.199375,-0.3147 0.486875,0 0.855,0.1544 0.374062,0.1544 0.6175,0.4453 0.243437,0.2909 0.368125,0.7006 0.124687,0.4097 0.124687,0.9263 l 0,3.7762 -0.564062,0 0,-3.7762 q 0,-0.8313 -0.38,-1.3003 -0.38,-0.475 -1.16375,-0.475 -0.581875,0 -1.080625,0.3028 -0.49875,0.2969 -0.890625,0.8194 l 0,4.4293 -0.564063,0 z" />
      <path
         id="path8086"
         style="font-style:normal;font-variant:normal;font-weight:300;font-stretch:normal;font-size:11.875px;font-family:Lato;-inkscape-font-specification:'Lato Light'"
         d="m 23.140424,1020.2782 q -0.599688,0 -0.938125,-0.3325 -0.3325,-0.3325 -0.3325,-1.0272 l 0,-4.0375 -0.849063,0 q -0.06531,0 -0.106875,-0.036 -0.04156,-0.036 -0.04156,-0.1009 l 0,-0.2197 1.009375,-0.071 0.1425,-2.1137 q 0.0059,-0.053 0.04156,-0.095 0.04156,-0.042 0.106875,-0.042 l 0.267188,0 0,2.2563 1.858437,0 0,0.4215 -1.858437,0 0,4.0079 q 0,0.2434 0.05937,0.4215 0.06531,0.1722 0.172187,0.285 0.112813,0.1128 0.26125,0.1663 0.148438,0.053 0.320625,0.053 0.21375,0 0.368125,-0.059 0.154375,-0.065 0.267188,-0.1365 0.112812,-0.077 0.184062,-0.1366 0.07125,-0.065 0.112813,-0.065 0.0475,0 0.095,0.059 l 0.154375,0.2493 q -0.225625,0.2494 -0.575938,0.4038 -0.344375,0.1484 -0.718437,0.1484 z" />
      <path
         id="path8088"
         style="font-style:normal;font-variant:normal;font-weight:300;font-stretch:normal;font-size:11.875px;font-family:Lato;-inkscape-font-specification:'Lato Light'"
         d="m 29.540121,1020.1832 q -0.178125,0 -0.219687,-0.1662 l -0.08312,-0.7541 q -0.243438,0.2375 -0.486875,0.4275 -0.2375,0.19 -0.49875,0.3206 -0.26125,0.1307 -0.564063,0.196 -0.302812,0.071 -0.665,0.071 -0.302812,0 -0.587812,-0.089 -0.285,-0.089 -0.504688,-0.2732 -0.219687,-0.184 -0.35625,-0.469 -0.130625,-0.291 -0.130625,-0.6947 0,-0.3741 0.21375,-0.6947 0.21375,-0.3206 0.665,-0.5581 0.457188,-0.2375 1.169688,-0.38 0.718437,-0.1425 1.721875,-0.1663 l 0,-0.6175 q 0,-0.8193 -0.35625,-1.2587 -0.350313,-0.4453 -1.045,-0.4453 -0.4275,0 -0.730313,0.1187 -0.296875,0.1188 -0.504687,0.2613 -0.207813,0.1425 -0.338438,0.2612 -0.130625,0.1188 -0.219687,0.1188 -0.11875,0 -0.178125,-0.1069 l -0.100938,-0.1722 q 0.463125,-0.4631 0.97375,-0.7006 0.510625,-0.2375 1.157813,-0.2375 0.475,0 0.83125,0.1544 0.35625,0.1484 0.587812,0.4334 0.2375,0.2791 0.35625,0.6828 0.11875,0.3978 0.11875,0.8906 l 0,3.8475 -0.225625,0 z m -2.375,-0.3147 q 0.344375,0 0.629375,-0.071 0.290938,-0.077 0.534375,-0.2078 0.249375,-0.1366 0.463125,-0.3206 0.21375,-0.1841 0.421563,-0.3979 l 0,-1.5378 q -0.843125,0.024 -1.454688,0.1307 -0.605625,0.1009 -1.003437,0.279 -0.391875,0.1781 -0.581875,0.4275 -0.184063,0.2435 -0.184063,0.5581 0,0.2969 0.095,0.5166 0.100938,0.2138 0.26125,0.3563 0.160313,0.1365 0.374063,0.2018 0.21375,0.065 0.445312,0.065 z" />
      <path
         id="path8090"
         style="font-style:normal;font-variant:normal;font-weight:300;font-stretch:normal;font-size:11.875px;font-family:Lato;-inkscape-font-specification:'Lato Light'"
         d="m 37.73016,1015.0651 q -0.02969,0.03 -0.05937,0.053 -0.02375,0.018 -0.07125,0.018 -0.05938,0 -0.16625,-0.077 -0.100937,-0.083 -0.273125,-0.1782 -0.172187,-0.095 -0.433437,-0.1721 -0.255313,-0.083 -0.623438,-0.083 -0.510625,0 -0.908437,0.1841 -0.391875,0.1781 -0.665,0.5166 -0.267188,0.3384 -0.409688,0.8193 -0.1425,0.481 -0.1425,1.0807 0,0.6234 0.1425,1.1043 0.148438,0.481 0.415625,0.8135 0.267188,0.3265 0.647188,0.4987 0.38,0.1722 0.843125,0.1722 0.4275,0 0.7125,-0.1009 0.290937,-0.101 0.475,-0.2197 0.19,-0.1188 0.296875,-0.2197 0.112812,-0.1009 0.178125,-0.1009 0.07719,0 0.11875,0.059 l 0.154375,0.19 q -0.136563,0.1782 -0.344375,0.3325 -0.207813,0.1544 -0.469063,0.2672 -0.26125,0.1128 -0.57,0.1722 -0.302812,0.065 -0.635312,0.065 -0.564063,0 -1.033125,-0.2019 -0.463125,-0.2078 -0.801563,-0.5937 -0.3325,-0.3919 -0.5225,-0.9559 -0.184062,-0.5641 -0.184062,-1.2825 0,-0.6769 0.178125,-1.235 0.178125,-0.5582 0.516562,-0.9619 0.344375,-0.4038 0.837188,-0.6235 0.49875,-0.2256 1.14,-0.2256 0.575937,0 1.02125,0.1841 0.45125,0.184 0.78375,0.4987 l -0.148438,0.2019 z" />
      <path
         id="path8092"
         style="font-style:normal;font-variant:normal;font-weight:300;font-stretch:normal;font-size:11.875px;font-family:Lato;-inkscape-font-specification:'Lato Light'"
         d="m 41.495463,1014.1804 q 0.635312,0 1.134062,0.2197 0.504688,0.2138 0.849063,0.6116 0.344375,0.3978 0.5225,0.9618 0.184062,0.5582 0.184062,1.2529 0,0.6946 -0.184062,1.2528 -0.178125,0.5581 -0.5225,0.9559 -0.344375,0.3978 -0.849063,0.6116 -0.49875,0.2137 -1.134062,0.2137 -0.635313,0 -1.14,-0.2137 -0.49875,-0.2138 -0.849063,-0.6116 -0.344375,-0.3978 -0.528437,-0.9559 -0.178125,-0.5582 -0.178125,-1.2528 0,-0.6947 0.178125,-1.2529 0.184062,-0.564 0.528437,-0.9618 0.350313,-0.3978 0.849063,-0.6116 0.504687,-0.2197 1.14,-0.2197 z m 0,5.6347 q 0.528437,0 0.920312,-0.1781 0.397813,-0.1841 0.659063,-0.5225 0.267187,-0.3385 0.397812,-0.8135 0.130625,-0.4809 0.130625,-1.0746 0,-0.5879 -0.130625,-1.0688 -0.130625,-0.4809 -0.397812,-0.8194 -0.26125,-0.3443 -0.659063,-0.5284 -0.391875,-0.1841 -0.920312,-0.1841 -0.528438,0 -0.92625,0.1841 -0.391875,0.1841 -0.659063,0.5284 -0.26125,0.3385 -0.397812,0.8194 -0.130625,0.4809 -0.130625,1.0688 0,0.5937 0.130625,1.0746 0.136562,0.475 0.397812,0.8135 0.267188,0.3384 0.659063,0.5225 0.397812,0.1781 0.92625,0.1781 z" />
      <path
         id="path8094"
         style="font-style:normal;font-variant:normal;font-weight:300;font-stretch:normal;font-size:11.875px;font-family:Lato;-inkscape-font-specification:'Lato Light'"
         d="m 45.669711,1020.1832 0,-5.9078 0.296875,0 q 0.100937,0 0.1425,0.042 0.0475,0.042 0.05344,0.1425 l 0.0475,1.2469 q 0.285,-0.7185 0.76,-1.1222 0.475,-0.4097 1.169688,-0.4097 0.267187,0 0.492812,0.059 0.225625,0.053 0.4275,0.1603 l -0.07719,0.3918 q -0.01781,0.095 -0.11875,0.095 -0.03563,0 -0.100938,-0.024 -0.06531,-0.024 -0.16625,-0.053 -0.095,-0.03 -0.2375,-0.053 -0.1425,-0.024 -0.326562,-0.024 -0.670938,0 -1.104375,0.4156 -0.4275,0.4156 -0.694688,1.1994 l 0,3.8415 -0.564062,0 z" />
      <path
         id="path8096"
         style="font-style:normal;font-variant:normal;font-weight:300;font-stretch:normal;font-size:11.875px;font-family:Lato;-inkscape-font-specification:'Lato Light'"
         d="m 50.377963,1020.1832 0,-5.9078 0.296875,0 q 0.100937,0 0.1425,0.042 0.0475,0.042 0.05344,0.1425 l 0.0475,1.2469 q 0.285,-0.7185 0.76,-1.1222 0.475,-0.4097 1.169688,-0.4097 0.267187,0 0.492812,0.059 0.225625,0.053 0.4275,0.1603 l -0.07719,0.3918 q -0.01781,0.095 -0.11875,0.095 -0.03563,0 -0.100938,-0.024 -0.06531,-0.024 -0.16625,-0.053 -0.095,-0.03 -0.2375,-0.053 -0.1425,-0.024 -0.326562,-0.024 -0.670938,0 -1.104375,0.4156 -0.4275,0.4156 -0.694688,1.1994 l 0,3.8415 -0.564062,0 z" />
      <path
         id="path8098"
         style="font-style:normal;font-variant:normal;font-weight:300;font-stretch:normal;font-size:11.875px;font-family:Lato;-inkscape-font-specification:'Lato Light'"
         d="m 57.312777,1014.1804 q 0.49875,0 0.920313,0.1722 0.4275,0.1722 0.73625,0.5047 0.314687,0.3266 0.486875,0.8075 0.178125,0.4809 0.178125,1.1044 0,0.1306 -0.04156,0.1781 -0.03562,0.048 -0.11875,0.048 l -4.269062,0 0,0.1128 q 0,0.665 0.154375,1.1697 0.154375,0.5047 0.439375,0.8491 0.285,0.3384 0.68875,0.5106 0.40375,0.1722 0.9025,0.1722 0.445312,0 0.771875,-0.095 0.326562,-0.101 0.54625,-0.2197 0.225625,-0.1247 0.35625,-0.2197 0.130625,-0.1009 0.19,-0.1009 0.07719,0 0.11875,0.059 l 0.154375,0.19 q -0.1425,0.1782 -0.38,0.3325 -0.231563,0.1544 -0.5225,0.2672 -0.285,0.1069 -0.6175,0.1722 -0.326563,0.065 -0.659063,0.065 -0.605625,0 -1.104375,-0.2078 -0.49875,-0.2137 -0.855,-0.6175 -0.35625,-0.4037 -0.552187,-0.9856 -0.19,-0.5878 -0.19,-1.3419 0,-0.6353 0.178125,-1.1697 0.184062,-0.5403 0.5225,-0.9262 0.344375,-0.3919 0.837187,-0.6116 0.49875,-0.2197 1.128125,-0.2197 z m 0.0059,0.4216 q -0.457188,0 -0.819375,0.1425 -0.362188,0.1425 -0.629375,0.4097 -0.26125,0.2672 -0.4275,0.6412 -0.160313,0.3741 -0.21375,0.8372 l 3.895,0 q 0,-0.475 -0.130625,-0.8491 -0.130625,-0.38 -0.368125,-0.6412 -0.2375,-0.2613 -0.57,-0.3978 -0.3325,-0.1425 -0.73625,-0.1425 z" />
      <path
         id="path8100"
         style="font-style:normal;font-variant:normal;font-weight:300;font-stretch:normal;font-size:11.875px;font-family:Lato;-inkscape-font-specification:'Lato Light'"
         d="m 61.162875,1020.1832 0,-5.9078 0.30875,0 q 0.154375,0 0.178125,0.1485 l 0.05344,0.8906 q 0.40375,-0.5106 0.938125,-0.8194 0.540313,-0.3147 1.199375,-0.3147 0.486875,0 0.855,0.1544 0.374063,0.1544 0.6175,0.4453 0.243438,0.2909 0.368125,0.7006 0.124688,0.4097 0.124688,0.9263 l 0,3.7762 -0.564063,0 0,-3.7762 q 0,-0.8313 -0.38,-1.3003 -0.38,-0.475 -1.16375,-0.475 -0.581875,0 -1.080625,0.3028 -0.49875,0.2969 -0.890625,0.8194 l 0,4.4293 -0.564062,0 z" />
      <path
         id="path8102"
         style="font-style:normal;font-variant:normal;font-weight:300;font-stretch:normal;font-size:11.875px;font-family:Lato;-inkscape-font-specification:'Lato Light'"
         d="m 69.202436,1020.2782 q -0.599688,0 -0.938125,-0.3325 -0.3325,-0.3325 -0.3325,-1.0272 l 0,-4.0375 -0.849063,0 q -0.06531,0 -0.106875,-0.036 -0.04156,-0.036 -0.04156,-0.1009 l 0,-0.2197 1.009375,-0.071 0.1425,-2.1137 q 0.0059,-0.053 0.04156,-0.095 0.04156,-0.042 0.106875,-0.042 l 0.267188,0 0,2.2563 1.858437,0 0,0.4215 -1.858437,0 0,4.0079 q 0,0.2434 0.05938,0.4215 0.06531,0.1722 0.172187,0.285 0.112813,0.1128 0.26125,0.1663 0.148438,0.053 0.320625,0.053 0.21375,0 0.368125,-0.059 0.154375,-0.065 0.267188,-0.1365 0.112812,-0.077 0.184062,-0.1366 0.07125,-0.065 0.112813,-0.065 0.0475,0 0.095,0.059 l 0.154375,0.2493 q -0.225625,0.2494 -0.575938,0.4038 -0.344375,0.1484 -0.718437,0.1484 z" />
      <path
         id="path8104"
         style="font-style:normal;font-variant:normal;font-weight:300;font-stretch:normal;font-size:11.875px;font-family:Lato;-inkscape-font-specification:'Lato Light'"
         d="m 74.058383,1014.1804 q 0.49875,0 0.920312,0.1722 0.4275,0.1722 0.73625,0.5047 0.314688,0.3266 0.486875,0.8075 0.178125,0.4809 0.178125,1.1044 0,0.1306 -0.04156,0.1781 -0.03562,0.048 -0.11875,0.048 l -4.269063,0 0,0.1128 q 0,0.665 0.154375,1.1697 0.154375,0.5047 0.439375,0.8491 0.285,0.3384 0.68875,0.5106 0.40375,0.1722 0.9025,0.1722 0.445313,0 0.771875,-0.095 0.326563,-0.101 0.54625,-0.2197 0.225625,-0.1247 0.35625,-0.2197 0.130625,-0.1009 0.19,-0.1009 0.07719,0 0.11875,0.059 l 0.154375,0.19 q -0.1425,0.1782 -0.38,0.3325 -0.231562,0.1544 -0.5225,0.2672 -0.285,0.1069 -0.6175,0.1722 -0.326562,0.065 -0.659062,0.065 -0.605625,0 -1.104375,-0.2078 -0.49875,-0.2137 -0.855,-0.6175 -0.35625,-0.4037 -0.552188,-0.9856 -0.19,-0.5878 -0.19,-1.3419 0,-0.6353 0.178125,-1.1697 0.184063,-0.5403 0.5225,-0.9262 0.344375,-0.3919 0.837188,-0.6116 0.49875,-0.2197 1.128125,-0.2197 z m 0.0059,0.4216 q -0.457187,0 -0.819375,0.1425 -0.362187,0.1425 -0.629375,0.4097 -0.26125,0.2672 -0.4275,0.6412 -0.160312,0.3741 -0.21375,0.8372 l 3.895,0 q 0,-0.475 -0.130625,-0.8491 -0.130625,-0.38 -0.368125,-0.6412 -0.2375,-0.2613 -0.57,-0.3978 -0.3325,-0.1425 -0.73625,-0.1425 z" />
      <path
         id="path8106"
         style="font-style:normal;font-variant:normal;font-weight:300;font-stretch:normal;font-size:11.875px;font-family:Lato;-inkscape-font-specification:'Lato Light'"
         d="m 84.390561,1020.1832 q -0.148438,0 -0.172188,-0.1543 l -0.05938,-0.9322 q -0.391875,0.5343 -0.920312,0.849 -0.5225,0.3147 -1.175625,0.3147 -1.086563,0 -1.698125,-0.754 -0.605625,-0.7541 -0.605625,-2.2622 0,-0.6472 0.16625,-1.2053 0.172187,-0.5641 0.49875,-0.9738 0.3325,-0.4156 0.8075,-0.6531 0.480937,-0.2375 1.104375,-0.2375 0.599687,0 1.039062,0.2256 0.439375,0.2197 0.76,0.6472 l 0,-3.5031 0.57,0 0,8.639 -0.314687,0 z m -2.167188,-0.38 q 0.587813,0 1.062813,-0.3028 0.475,-0.3028 0.849062,-0.8431 l 0,-3.1172 q -0.344375,-0.5047 -0.76,-0.7125 -0.409687,-0.2078 -0.932187,-0.2078 -0.5225,0 -0.914375,0.19 -0.391875,0.19 -0.659063,0.5403 -0.26125,0.3444 -0.397812,0.8313 -0.130625,0.4809 -0.130625,1.0628 0,1.3181 0.486875,1.9415 0.486875,0.6175 1.395312,0.6175 z" />
      <path
         id="path8108"
         style="font-style:normal;font-variant:normal;font-weight:300;font-stretch:normal;font-size:11.875px;font-family:Lato;-inkscape-font-specification:'Lato Light'"
         d="m 87.429076,1014.2754 0,5.9078 -0.564062,0 0,-5.9078 0.564062,0 z m 0.249375,-2.0365 q 0,0.1068 -0.0475,0.2018 -0.04156,0.089 -0.112812,0.1603 -0.07125,0.071 -0.16625,0.1129 -0.095,0.042 -0.201875,0.042 -0.106875,0 -0.201875,-0.042 -0.095,-0.042 -0.16625,-0.1129 -0.07125,-0.071 -0.112813,-0.1603 -0.04156,-0.095 -0.04156,-0.2018 0,-0.1069 0.04156,-0.2019 0.04156,-0.101 0.112813,-0.1722 0.07125,-0.071 0.16625,-0.1128 0.095,-0.042 0.201875,-0.042 0.106875,0 0.201875,0.042 0.095,0.042 0.16625,0.1128 0.07125,0.071 0.112812,0.1722 0.0475,0.095 0.0475,0.2019 z" />
      <path
         id="path8110"
         style="font-style:normal;font-variant:normal;font-weight:300;font-stretch:normal;font-size:11.875px;font-family:Lato;-inkscape-font-specification:'Lato Light'"
         d="m 91.475853,1014.1745 q 0.385938,0 0.7125,0.095 0.3325,0.095 0.59375,0.2672 l 1.514063,0 0,0.1959 q 0,0.1484 -0.16625,0.1603 l -0.896563,0.065 q 0.16625,0.2257 0.255313,0.5107 0.08906,0.279 0.08906,0.5996 0,0.4275 -0.154375,0.7779 -0.154375,0.3443 -0.433437,0.5937 -0.273125,0.2434 -0.659063,0.38 -0.385937,0.1366 -0.855,0.1366 -0.510625,0 -0.92625,-0.1544 -0.249375,0.1425 -0.391875,0.3384 -0.1425,0.196 -0.1425,0.38 0,0.2553 0.178125,0.3919 0.178125,0.1366 0.469063,0.2019 0.296875,0.059 0.670937,0.077 0.38,0.018 0.765938,0.042 0.391875,0.018 0.765937,0.071 0.38,0.053 0.670938,0.19 0.296875,0.1306 0.475,0.374 0.178125,0.2375 0.178125,0.6354 0,0.3681 -0.184063,0.7065 -0.184062,0.3385 -0.534375,0.5997 -0.344375,0.2613 -0.837187,0.4156 -0.492813,0.1603 -1.104375,0.1603 -0.623438,0 -1.0925,-0.1306 -0.469063,-0.1247 -0.789688,-0.3444 -0.314687,-0.2137 -0.475,-0.4987 -0.160312,-0.285 -0.160312,-0.6056 0,-0.4691 0.30875,-0.8075 0.30875,-0.3385 0.849062,-0.5225 -0.296875,-0.101 -0.475,-0.291 -0.172187,-0.19 -0.172187,-0.5284 0,-0.1247 0.0475,-0.2613 0.0475,-0.1365 0.1425,-0.2671 0.095,-0.1366 0.225625,-0.2554 0.136562,-0.1187 0.314687,-0.2137 -0.421562,-0.2434 -0.659062,-0.6472 -0.231563,-0.4037 -0.231563,-0.9441 0,-0.4275 0.148438,-0.7718 0.154375,-0.3503 0.4275,-0.5997 0.279062,-0.2494 0.670937,-0.386 0.391875,-0.1365 0.866875,-0.1365 z m 2.190938,6.4065 q 0,-0.279 -0.148438,-0.4453 -0.1425,-0.1722 -0.385937,-0.2672 -0.243438,-0.095 -0.564063,-0.1306 -0.314687,-0.041 -0.665,-0.059 -0.344375,-0.018 -0.694687,-0.036 -0.350313,-0.018 -0.653125,-0.071 -0.225625,0.089 -0.421563,0.2078 -0.19,0.1128 -0.326562,0.2612 -0.136563,0.1425 -0.21375,0.3147 -0.07719,0.1781 -0.07719,0.386 0,0.2612 0.130625,0.4809 0.136563,0.2256 0.391875,0.3859 0.26125,0.1663 0.635313,0.2613 0.374062,0.095 0.860937,0.095 0.45125,0 0.837188,-0.101 0.391875,-0.1009 0.676875,-0.285 0.290937,-0.184 0.45125,-0.4393 0.16625,-0.2553 0.16625,-0.5582 z m -2.190938,-3.0103 q 0.38,0 0.676875,-0.1068 0.296875,-0.1129 0.49875,-0.3088 0.201875,-0.1959 0.302813,-0.4691 0.106875,-0.2731 0.106875,-0.6056 0,-0.3325 -0.106875,-0.6056 -0.106875,-0.2791 -0.314688,-0.475 -0.201875,-0.1959 -0.49875,-0.3028 -0.290937,-0.1069 -0.665,-0.1069 -0.374062,0 -0.670937,0.1069 -0.296875,0.1069 -0.504688,0.3028 -0.201875,0.1959 -0.30875,0.475 -0.106875,0.2731 -0.106875,0.6056 0,0.3325 0.106875,0.6056 0.106875,0.2732 0.30875,0.4691 0.207813,0.1959 0.504688,0.3088 0.296875,0.1068 0.670937,0.1068 z" />
      <path
         id="path8112"
         style="font-style:normal;font-variant:normal;font-weight:300;font-stretch:normal;font-size:11.875px;font-family:Lato;-inkscape-font-specification:'Lato Light'"
         d="m 96.242553,1014.2754 0,5.9078 -0.564063,0 0,-5.9078 0.564063,0 z m 0.249375,-2.0365 q 0,0.1068 -0.0475,0.2018 -0.04156,0.089 -0.112813,0.1603 -0.07125,0.071 -0.16625,0.1129 -0.095,0.042 -0.201875,0.042 -0.106875,0 -0.201875,-0.042 -0.095,-0.042 -0.16625,-0.1129 -0.07125,-0.071 -0.112812,-0.1603 -0.04156,-0.095 -0.04156,-0.2018 0,-0.1069 0.04156,-0.2019 0.04156,-0.101 0.112812,-0.1722 0.07125,-0.071 0.16625,-0.1128 0.095,-0.042 0.201875,-0.042 0.106875,0 0.201875,0.042 0.095,0.042 0.16625,0.1128 0.07125,0.071 0.112813,0.1722 0.0475,0.095 0.0475,0.2019 z" />
      <path
         id="path8114"
         style="font-style:normal;font-variant:normal;font-weight:300;font-stretch:normal;font-size:11.875px;font-family:Lato;-inkscape-font-specification:'Lato Light'"
         d="m 99.95683,1020.2782 q -0.599687,0 -0.938125,-0.3325 -0.3325,-0.3325 -0.3325,-1.0272 l 0,-4.0375 -0.849062,0 q -0.06531,0 -0.106875,-0.036 -0.04156,-0.036 -0.04156,-0.1009 l 0,-0.2197 1.009375,-0.071 0.1425,-2.1137 q 0.0059,-0.053 0.04156,-0.095 0.04156,-0.042 0.106875,-0.042 l 0.267187,0 0,2.2563 1.858435,0 0,0.4215 -1.858435,0 0,4.0079 q 0,0.2434 0.05938,0.4215 0.06531,0.1722 0.172188,0.285 0.112812,0.1128 0.26125,0.1663 0.148437,0.053 0.320622,0.053 0.21375,0 0.36813,-0.059 0.15437,-0.065 0.26719,-0.1365 0.11281,-0.077 0.18406,-0.1366 0.0712,-0.065 0.11281,-0.065 0.0475,0 0.095,0.059 l 0.15438,0.2493 q -0.22563,0.2494 -0.57594,0.4038 -0.34438,0.1484 -0.71844,0.1484 z" />
      <path
         id="path8116"
         style="font-style:normal;font-variant:normal;font-weight:300;font-stretch:normal;font-size:11.875px;font-family:Lato;-inkscape-font-specification:'Lato Light'"
         d="m 106.35653,1020.1832 q -0.17813,0 -0.21969,-0.1662 l -0.0831,-0.7541 q -0.24343,0.2375 -0.48687,0.4275 -0.2375,0.19 -0.49875,0.3206 -0.26125,0.1307 -0.56406,0.196 -0.30282,0.071 -0.665,0.071 -0.30282,0 -0.58782,-0.089 -0.285,-0.089 -0.50468,-0.2732 -0.21969,-0.184 -0.35625,-0.469 -0.13063,-0.291 -0.13063,-0.6947 0,-0.3741 0.21375,-0.6947 0.21375,-0.3206 0.665,-0.5581 0.45719,-0.2375 1.16969,-0.38 0.71844,-0.1425 1.72187,-0.1663 l 0,-0.6175 q 0,-0.8193 -0.35625,-1.2587 -0.35031,-0.4453 -1.045,-0.4453 -0.4275,0 -0.73031,0.1187 -0.29687,0.1188 -0.50469,0.2613 -0.20781,0.1425 -0.33843,0.2612 -0.13063,0.1188 -0.21969,0.1188 -0.11875,0 -0.17813,-0.1069 l -0.10093,-0.1722 q 0.46312,-0.4631 0.97375,-0.7006 0.51062,-0.2375 1.15781,-0.2375 0.475,0 0.83125,0.1544 0.35625,0.1484 0.58781,0.4334 0.2375,0.2791 0.35625,0.6828 0.11875,0.3978 0.11875,0.8906 l 0,3.8475 -0.22562,0 z m -2.375,-0.3147 q 0.34437,0 0.62937,-0.071 0.29094,-0.077 0.53438,-0.2078 0.24937,-0.1366 0.46312,-0.3206 0.21375,-0.1841 0.42156,-0.3979 l 0,-1.5378 q -0.84312,0.024 -1.45468,0.1307 -0.60563,0.1009 -1.00344,0.279 -0.39188,0.1781 -0.58188,0.4275 -0.18406,0.2435 -0.18406,0.5581 0,0.2969 0.095,0.5166 0.10094,0.2138 0.26125,0.3563 0.16031,0.1365 0.37406,0.2018 0.21375,0.065 0.44532,0.065 z" />
      <path
         id="path8118"
         style="font-style:normal;font-variant:normal;font-weight:300;font-stretch:normal;font-size:11.875px;font-family:Lato;-inkscape-font-specification:'Lato Light'"
         d="m 109.09167,1011.5442 0,8.639 -0.56406,0 0,-8.639 0.56406,0 z" />
    </g>
  </g>
</svg>
