<?xml version="1.0" encoding="utf-8"?>
<!-- Generator: Adobe Illustrator 18.0.0, SVG Export Plug-In . SVG Version: 6.00 Build 0)  -->
<!DOCTYPE svg PUBLIC "-//W3C//DTD SVG 1.1//EN" "http://www.w3.org/Graphics/SVG/1.1/DTD/svg11.dtd" [
	<!ENTITY ns_flows "http://ns.adobe.com/Flows/1.0/">
	<!ENTITY ns_extend "http://ns.adobe.com/Extensibility/1.0/">
	<!ENTITY ns_ai "http://ns.adobe.com/AdobeIllustrator/10.0/">
	<!ENTITY ns_graphs "http://ns.adobe.com/Graphs/1.0/">
]>
<svg version="1.1" id="Layer_1" xmlns:x="&ns_extend;" xmlns:i="&ns_ai;" xmlns:graph="&ns_graphs;"
	 xmlns="http://www.w3.org/2000/svg" xmlns:xlink="http://www.w3.org/1999/xlink" xmlns:a="http://ns.adobe.com/AdobeSVGViewerExtensions/3.0/"
	 x="0px" y="0px" viewBox="0 0 116 71" enable-background="new 0 0 116 71" xml:space="preserve">
<g>
	<path fill="#FFFFFF" d="M115.8,58.2c0-2.2-1.8-4.1-4.1-4.1c-2.2,0-4.1,1.8-4.1,4.1c0,1.5,0.8,2.8,2,3.5c-0.1,0.6-0.4,1.2-0.7,1.6
		c-0.4,0.5-0.9,0.9-1.7,1.2c-0.8,0.3-2,0.5-3.5,0.5H87c0.2-2,0.6-4.2,1.3-6.1c0.8-2.3,1.8-4.5,3-6.6c1.2-2.1,2.6-4.2,4.2-6.2
		c1.6-2,3.2-4.1,4.8-6.1c1.6-1.9,3.1-3.8,4.6-5.7c1.5-1.9,2.8-3.9,4-5.8c1.2-2,2.2-4,2.9-6.1c0.7-2.1,1.2-4.3,1.2-6.5v-1.4
		c0-0.8-0.2-1.7-0.4-2.8c-0.2-1.1-0.6-2.3-1.2-3.5C110.8,7,110,5.8,109,4.7c-2.5-2.7-6-4-10.3-4c-4.5,0-7.9,1.4-10.2,4.1
		c-0.3,0.4-0.7,0.9-0.9,1.3C85,6.2,83,8.3,83,10.8c0,1.6,0.8,2.9,1.9,3.8l-8.7,42.7L65.9,6.8C66.6,6.1,67,5.1,67,4
		c0-2.2-1.8-3.9-4.1-3.9c-1.3,0-2.5,0.8-3.3,1.8H45.6l0,0H33.8C32.7,2,32,2.3,32,3.4V37h-1.5c-0.4-2-1.5-3-2.5-3.5V3
		c0-1.1-0.9-1.9-2-1.9S24,1.9,24,3v30.6c-1,0.8-2.6,2.4-2.6,4.2s1.6,3.5,2.6,4.2v10.4l-0.1,0.1c0.1,1.1-0.1,2.2-0.3,3.3
		c-0.2,0.9-0.5,1.9-0.9,3c-0.4,1-1,1.9-1.7,2.8c-1.1,1.1-2.4,1.9-3.9,2.4c-0.7-1.1-2-1.8-3.4-1.8c-1.5,0-2.7,0.8-3.4,1.9
		c-1.6-0.4-2.9-1.2-4-2.3c-0.8-0.9-1.4-1.9-1.8-3c-0.4-1.1-0.7-2.1-0.8-3.1l0-0.1c-0.2-1.1-0.3-2.3-0.2-3.5L3.5,3
		c0-1.1-0.6-1.8-1.7-1.8C0.6,1.2,0,1.9,0,3v50.5c0,0.9,0,1.9,0.1,3.1c0.2,1.2,0.5,2.5,1,3.9c0.5,1.4,1.3,2.7,2.4,3.8
		c1.7,1.8,3.8,3,6.4,3.6c0.6,1.5,2.1,2.5,3.8,2.5c1.7,0,3.2-1.1,3.8-2.6c2.5-0.6,4.6-1.7,6.2-3.5c1.1-1.1,1.9-2.4,2.4-3.7
		c0.5-1.3,1.1-2.5,1.3-3.7c0.3-1.2,0.6-2.1,0.6-3V42.4c1-0.4,1.7-1.1,2.3-2.1l1.7,0v25.6c0,1.1,0.9,1.8,2,1.8c1.1,0,2-0.7,2-1.8V41
		h11.6c0.1,0,0.1-0.3,0.2-0.3L59.3,67c0.3,0.7,0.9,1,1.7,1h0.6l0.2-0.2c0.4-0.2,0.8-0.6,0.9-1.1c0.2-0.5,0.2-1-0.1-1.4L51.3,39.5
		c2.1-1,4-2.8,5.7-5.3c1.2-1.8,2.1-3.9,2.7-6.2c0.6-2.3,1-4.6,1-6.9c0-2.4-0.3-4.7-1-7c-0.6-2.3-1.6-4-2.7-5.9c-0.6-0.9-1.2-1-1.8-2
		h3.9c0.5,1,1.7,2.2,3.3,2.4l11.1,54.4c-1.1,0.9-1.7,2.1-1.7,3.6c0,2.6,2.1,4.7,4.7,4.7s4.7-2.1,4.7-4.8c0-1.7-0.9-3.2-2.2-4
		l9.5-46.8c2.2-0.4,4-2.3,4-4.7c0-1.3-0.5-2.5-1.4-3.4c0.1-0.1,0.2-0.2,0.3-0.3c1.5-1.8,4-2.7,7.3-2.7c3.3,0,5.8,0.9,7.6,2.8
		c0.7,0.8,1.3,1.7,1.7,2.6c0.4,1,0.7,2,0.8,2.9c0.2,1,0.3,2,0.2,2.9l0,0.1c0,1.9-0.3,3.8-0.9,5.6c-0.6,1.8-1.5,3.7-2.5,5.4
		c-1.1,1.8-2.3,3.6-3.7,5.4c-1.4,1.8-2.8,3.6-4.3,5.5c-1.7,2.1-3.4,4.2-5.1,6.4c-1.7,2.2-3.2,4.5-4.5,6.8c-1.6,2.7-2.7,5.4-3.5,8
		c-0.8,2.6-1.1,5.5-1.1,8.2c0,1.1,0.7,2,1.8,2h18.7c2,0,3.6-0.4,4.9-0.9c1.3-0.5,2.4-1.4,3.3-2.5c0.7-1,1.2-2.2,1.4-3.6c0,0,0,0,0,0
		C114.8,61.3,115.8,59.9,115.8,58.2z M36,6h9.6l0,0H48c0.9,0,1.8,0.1,2.7,0.7c1.1,0.8,2.2,1.7,3.1,3.2c1,1.5,1.7,3.2,2.2,5.1
		c0.5,2,0.8,3.9,0.8,6c0,2-0.3,4-0.8,5.9c-0.5,1.9-1.3,3.7-2.2,5.2c-0.9,1.4-2,2.8-3.1,3.6c-1.1,0.7-2.2,1.3-3.2,1.3H36V6z"/>
	<path fill="#FFFFFF" d="M114.9,58.2c0-1.7-1.4-3.2-3.2-3.2c-1.7,0-3.2,1.4-3.2,3.2c0,1.4,0.9,2.6,2.1,3c0,0,0,0,0,0.1
		c-0.1,1-0.5,1.9-0.9,2.6c-0.5,0.7-1.2,1.3-2.1,1.6c-0.9,0.3-2.2,0.6-3.8,0.6H86.1c0.1-3,0.6-5.1,1.4-7.4c0.8-2.3,1.9-4.6,3.1-6.8
		c1.2-2.2,2.7-4.3,4.3-6.3c1.6-2,3.2-4.1,4.8-6.1c1.6-1.9,3.1-3.8,4.6-5.7c1.4-1.9,2.8-3.8,3.9-5.7c1.2-1.9,2.1-3.9,2.8-5.9
		c0.7-2,1.1-4.1,1.1-6.2c0-0.2,0-0.6,0-1.4c0-0.7-0.2-1.6-0.4-2.7c-0.2-1-0.6-2.1-1.1-3.3c-0.5-1.2-1.2-2.2-2.2-3.2
		c-2.3-2.5-5.5-3.7-9.7-3.7c-4.2,0-7.4,1.2-9.5,3.7C88.7,5.9,88.4,6.4,88,7c-0.1,0-0.2,0-0.3,0c-2.1,0-3.8,1.7-3.8,3.8
		c0,1.5,0.8,2.7,2,3.4l-9.7,47.7L64.9,6.5C65.7,5.9,66.1,5,66.1,4c0-1.7-1.4-2.9-3.2-2.9c-1.2,0-2.2,0.9-2.8,1.9H46.5l0,0H33.8
		C33.2,3,33,2.8,33,3.4V38h-3.2c-0.2-2-0.8-3.6-2.8-3.9V3c0-0.7-0.4-1-1-1c-0.7,0-1,0.3-1,1v31.2c-1,0.5-2.6,1.9-2.6,3.6
		c0,1.7,1.6,3.1,2.6,3.6v11v0.1c0,1.2-0.2,2.3-0.4,3.5c-0.2,1-0.5,2.1-1,3.1c-0.4,1.1-1.1,2.1-1.9,3.1c-1.3,1.4-3,2.3-5.1,2.8
		c-0.5-1.2-1.6-2-2.9-2c-1.3,0-2.5,0.8-3,2c-2.1-0.4-3.8-1.3-5.1-2.8c-0.9-1-1.6-2.1-2-3.2C3.2,58,3.1,56.9,3,55.8
		c-0.2-1.2,0-2.4,0-3.7V52V3c0-0.6-0.4-0.9-1-0.9C1.3,2.1,1,2.4,1,3v49c0,0.2,0,0.7,0,1.5c0,0.8-0.1,1.8,0.1,3
		c0.2,1.2,0.4,2.4,0.9,3.7c0.5,1.3,1.2,2.5,2.2,3.5c1.6,1.8,3.8,2.9,6.4,3.4c0.3,1.4,1.6,2.4,3.1,2.4c1.5,0,2.8-1.1,3.1-2.5
		c2.5-0.5,4.6-1.6,6.2-3.3c1-1.1,1.8-2.2,2.3-3.5c0.5-1.2,1-2.4,1.3-3.5c0.2-1.1,0.5-2,0.5-2.8c0-0.8,0-1.2,0-1.3V41.7
		c1-0.2,2.2-1.1,2.7-2.3l3.3,0v26.5c0,0.6,0.4,0.9,1,0.9c0.6,0,1-0.3,1-0.9V40h12.6c0.3,0,0.5-0.3,0.7-0.4l11.8,26.9
		c0.2,0.4,0.5,0.5,0.9,0.5h0.4c0.2,0,0.4-0.4,0.5-0.6c0.1-0.2,0.1-0.5,0-0.8L50.1,39c2.2-0.8,4.3-2.6,6.1-5.3c1.1-1.8,2-3.8,2.6-6
		c0.6-2.2,0.9-4.5,0.9-6.7c0-2.3-0.3-4.6-0.9-6.8c-0.6-2.2-1.5-3.9-2.6-5.7c-1-1.6-2.2-2.5-3.4-3.5h7C60,6,61.3,7.5,63,7.5
		c0.1,0,0.1-0.2,0.2-0.2l11.4,55.7c-1.1,0.7-1.8,1.8-1.8,3.2c0,2.1,1.7,3.8,3.8,3.8s3.8-1.7,3.8-3.9c0-1.6-1-3-2.4-3.5l9.8-48.1
		c2.1,0,3.8-1.7,3.8-3.8c0-1.3-0.7-2.5-1.7-3.2c0.2-0.4,0.5-0.7,0.8-1.1c1.7-2,4.4-3,8-3c3.5,0,6.3,1,8.3,3.1
		c0.8,0.9,1.4,1.9,1.9,2.9c0.4,1.1,0.7,2.1,0.9,3c0.2,1.1,0.3,2.1,0.3,3.2v0.1c0,2-0.4,4-1,5.9c-0.7,1.9-1.5,3.8-2.6,5.6
		c-1.1,1.8-2.4,3.7-3.8,5.5c-1.4,1.8-2.9,3.7-4.4,5.5c-1.7,2.1-3.4,4.2-5.1,6.3c-1.7,2.2-3.1,4.4-4.4,6.7c-1.5,2.7-2.7,5.3-3.4,7.8
		c-0.7,2.5-1.1,5.3-1.1,7.9c0,0.6,0.3,1,0.9,1h18.7c1.9,0,3.4-0.4,4.6-0.8c1.2-0.4,2.1-1.2,2.8-2.2c0.7-0.9,1.1-2,1.2-3.2
		c0-0.2,0-0.4,0.1-0.6C113.9,60.9,114.9,59.7,114.9,58.2z M51.3,6c1.2,0.9,2.4,1.9,3.4,3.4c1,1.6,1.8,3.3,2.4,5.4
		c0.6,2,0.8,4.1,0.8,6.2c0,2.1-0.3,4.1-0.8,6.1c-0.6,2-1.3,3.9-2.4,5.4c-1,1.5-2.1,3-3.4,3.9C50,37.3,48.8,38,47.6,38H35V5h11.5l0,0
		h1.6C49.2,5,50.2,5.2,51.3,6z"/>
	<g>
		<circle fill="#FFFFFF" cx="13.7" cy="66.3" r="2"/>
		<circle fill="#FFFFFF" cx="76.5" cy="66.3" r="2.7"/>
		<circle fill="#FFFFFF" cx="26" cy="37.9" r="2.7"/>
		<circle fill="#FFFFFF" cx="63" cy="4" r="2"/>
		<circle fill="#FFFFFF" cx="87.8" cy="10.8" r="2.7"/>
		<circle fill="#FFFFFF" cx="111.7" cy="58.2" r="2"/>
	</g>
</g>
</svg>
