<?xml version="1.0" encoding="UTF-8" standalone="no"?>
<!-- Created with Inkscape (http://www.inkscape.org/) -->

<svg
   xmlns:dc="http://purl.org/dc/elements/1.1/"
   xmlns:cc="http://creativecommons.org/ns#"
   xmlns:rdf="http://www.w3.org/1999/02/22-rdf-syntax-ns#"
   xmlns:svg="http://www.w3.org/2000/svg"
   xmlns="http://www.w3.org/2000/svg"
   xmlns:sodipodi="http://sodipodi.sourceforge.net/DTD/sodipodi-0.dtd"
   xmlns:inkscape="http://www.inkscape.org/namespaces/inkscape"
   width="200"
   height="110.24418"
   viewBox="0 0 200 110.24418"
   id="svg2"
   version="1.1"
   inkscape:version="0.91 r"
   sodipodi:docname="logo-negative.svg"
   inkscape:export-filename="/home/troggy/projects/clients/guillerme/logo-negative.png"
   inkscape:export-xdpi="90"
   inkscape:export-ydpi="90">
  <defs
     id="defs4" />
  <sodipodi:namedview
     id="base"
     pagecolor="#ffffff"
     bordercolor="#666666"
     borderopacity="1.0"
     inkscape:pageopacity="0"
     inkscape:pageshadow="2"
     inkscape:zoom="5.6"
     inkscape:cx="57.154976"
     inkscape:cy="56.39865"
     inkscape:document-units="px"
     inkscape:current-layer="layer1"
     showgrid="true"
     units="px"
     inkscape:window-width="1317"
     inkscape:window-height="744"
     inkscape:window-x="49"
     inkscape:window-y="24"
     inkscape:window-maximized="1"
     showguides="false"
     fit-margin-top="0"
     fit-margin-left="0"
     fit-margin-right="0"
     fit-margin-bottom="0">
    <inkscape:grid
       type="xygrid"
       id="grid3360"
       originx="-2.852875"
       originy="-30.555756" />
  </sodipodi:namedview>
  <metadata
     id="metadata7">
    <rdf:RDF>
      <cc:Work
         rdf:about="">
        <dc:format>image/svg+xml</dc:format>
        <dc:type
           rdf:resource="http://purl.org/dc/dcmitype/StillImage" />
        <dc:title></dc:title>
      </cc:Work>
    </rdf:RDF>
  </metadata>
  <g
     inkscape:label="Layer 1"
     inkscape:groupmode="layer"
     id="layer1"
     transform="translate(-2.852875,-911.56223)">
    <g
       transform="scale(0.9912075,1.0088705)"
       style="font-style:normal;font-variant:normal;font-weight:900;font-stretch:normal;font-size:98.37324524px;line-height:125%;font-family:Lato;-inkscape-font-specification:'Lato Heavy';letter-spacing:0px;word-spacing:0px;opacity:0.95;fill:#f3efff;fill-opacity:0.94117647;stroke:none;stroke-width:1px;stroke-linecap:butt;stroke-linejoin:miter;stroke-opacity:1"
       id="text3352">
      <path
         d="m 19.226401,924.99268 0,32.3648 q 0,3.78737 1.721532,5.8532 1.721531,2.06584 5.066222,2.06584 2.508518,0 4.672729,-1.03292 2.213398,-1.03292 4.279236,-2.90201 l 0,-36.34891 15.247853,0 0,51.00653 -9.443831,0 q -2.852825,0 -3.738184,-2.55771 l -0.934546,-2.9512 q -1.475598,1.42642 -3.04957,2.6069 -1.573972,1.13129 -3.393877,1.96746 -1.770719,0.78699 -3.836557,1.22967 -2.065838,0.49186 -4.525169,0.49186 -4.180863,0 -7.42718,-1.42641 -3.19713,-1.4756 -5.4105285,-4.08249 -2.213398,-2.60689 -3.3446903,-6.14833 -1.1312923,-3.54143 -1.1312923,-7.77148 l 0,-32.3648 15.2478531,0 z"
         style=""
         id="path21723" />
      <path
         d="m 62.026447,975.99921 0,-51.00653 9.050339,0 q 1.131292,0 1.869092,0.19675 0.786986,0.19674 1.278852,0.63942 0.541053,0.39349 0.786986,1.08211 0.295119,0.68861 0.491866,1.67234 l 0.836173,4.7711 q 2.803637,-4.32842 6.295887,-6.83694 3.49225,-2.50851 7.623927,-2.50851 3.49225,0 5.607275,1.67234 l -1.967465,11.21455 q -0.196747,1.03292 -0.786986,1.4756 -0.59024,0.39349 -1.573972,0.39349 -0.836173,0 -1.967465,-0.19674 -1.131292,-0.24594 -2.852824,-0.24594 -6.000768,0 -9.443832,6.39426 l 0,31.2827 -15.247853,0 z"
         style=""
         id="path21725" />
      <path
         d="m 130.80011,975.99921 -13.87063,0 -19.773022,-51.00653 12.690152,0 q 1.62315,0 2.70526,0.78698 1.13129,0.7378 1.52479,1.8691 l 7.08287,22.87178 q 0.83617,2.80363 1.57397,5.45971 0.78699,2.65608 1.32804,5.31216 0.54105,-2.65608 1.32804,-5.31216 0.78699,-2.65608 1.67234,-5.45971 l 7.378,-22.87178 q 0.39349,-1.1313 1.4756,-1.8691 1.0821,-0.78698 2.5577,-0.78698 l 12.09991,0 -19.77302,51.00653 z"
         style=""
         id="path21727" />
      <path
         d="m 180.64921,903.54731 q 5.31215,0 9.5422,1.57397 4.27924,1.52479 7.27962,4.27924 3.00038,2.75445 4.57436,6.59101 1.62316,3.78737 1.62316,8.36172 0,3.93493 -1.1313,7.27962 -1.0821,3.34469 -3.00038,6.39426 -1.91828,3.00039 -4.47598,5.85321 -2.50852,2.80364 -5.36135,5.70565 l -14.01818,14.36249 q 2.70526,-0.78698 5.31215,-1.22966 2.65608,-0.49187 4.96785,-0.49187 l 13.37876,0 q 2.45933,0 3.88575,1.37723 1.42641,1.32804 1.42641,3.54143 l 0,8.8536 -50.3671,0 0,-4.91867 q 0,-1.42641 0.59024,-3.04957 0.59024,-1.62315 2.06583,-2.95119 l 20.65839,-20.80595 q 2.65607,-2.65607 4.62354,-5.06622 1.96746,-2.41014 3.24631,-4.72191 1.27886,-2.36096 1.91828,-4.67273 0.63943,-2.36096 0.63943,-4.96785 0,-4.27924 -2.06584,-6.54182 -2.01665,-2.31177 -6.19751,-2.31177 -1.72154,0 -3.14795,0.49186 -1.42641,0.49187 -2.5577,1.32804 -1.13129,0.83617 -1.96747,1.96747 -0.78698,1.13129 -1.27885,2.45933 -0.78698,2.2134 -2.01665,3.19713 -1.18048,0.98373 -3.24632,0.98373 -0.49186,0 -1.0821,-0.0492 -0.54106,-0.0492 -1.1313,-0.14756 l -8.0666,-1.42641 q 0.78698,-5.36134 3.00038,-9.34546 2.26259,-3.98411 5.55809,-6.64019 3.34469,-2.65608 7.62393,-3.93493 4.27923,-1.32804 9.1979,-1.32804 z"
         style=""
         id="path21729" />
    </g>
    <g
       style="font-style:normal;font-variant:normal;font-weight:300;font-stretch:normal;font-size:17.18862534px;line-height:125%;font-family:Lato;-inkscape-font-specification:'Lato, Light';text-align:start;letter-spacing:0px;word-spacing:0px;writing-mode:lr-tb;text-anchor:start;opacity:0.95;fill:#f3efff;fill-opacity:0.94117647;stroke:none;stroke-width:1px;stroke-linecap:butt;stroke-linejoin:miter;stroke-opacity:1"
       id="text3356">
      <path
         d="m 12.605511,1011.3938 q 0.08594,0 0.146103,0.06 l 0.343773,0.3695 q -0.37815,0.404 -0.825054,0.7306 -0.446905,0.3179 -0.979752,0.55 -0.524253,0.2234 -1.160232,0.3438 -0.6273851,0.1289 -1.3836847,0.1289 -1.2633639,0 -2.3204644,-0.4383 -1.0485061,-0.4469 -1.8048056,-1.2548 -0.7477052,-0.8165 -1.1688266,-1.9681 -0.4211213,-1.1516 -0.4211213,-2.5611 0,-1.3837 0.4297157,-2.5267 0.4383099,-1.1431 1.2203924,-1.9595 0.7906767,-0.8251 1.8821544,-1.272 1.100072,-0.4555 2.4235962,-0.4555 0.6617621,0 1.2117979,0.1031 0.550036,0.095 1.022723,0.2837 0.481282,0.1804 0.902403,0.4555 0.421122,0.275 0.825054,0.6359 l -0.266423,0.3868 q -0.06875,0.1031 -0.214858,0.1031 -0.07735,0 -0.197669,-0.086 -0.120321,-0.095 -0.309396,-0.2235 -0.18048,-0.1375 -0.446904,-0.2922 -0.257829,-0.1633 -0.61879,-0.2922 -0.360962,-0.1375 -0.833649,-0.2235 -0.472687,-0.094 -1.0742889,-0.094 -1.1086663,0 -2.0368521,0.3868 -0.9281858,0.3781 -1.5985422,1.0914 -0.6703563,0.7048 -1.0485061,1.7189 -0.3695555,1.0055 -0.3695555,2.2603 0,1.2891 0.3695555,2.3033 0.3695554,1.0141 1.0227232,1.7188 0.6531678,0.6962 1.538382,1.0743 0.8938085,0.3696 1.9337203,0.3696 0.6531678,0 1.1602322,-0.086 0.5156586,-0.086 0.9453746,-0.2578 0.429715,-0.1719 0.799271,-0.4211 0.369555,-0.2492 0.730516,-0.5844 0.04297,-0.034 0.07735,-0.052 0.04297,-0.026 0.09454,-0.026 z"
         style=""
         id="path21732" />
      <path
         d="m 20.901171,1013.4393 q -0.257829,0 -0.317989,-0.2407 l -0.120321,-1.0914 q -0.352366,0.3437 -0.704733,0.6187 -0.343773,0.2751 -0.721923,0.4641 -0.378149,0.1891 -0.816459,0.2836 -0.43831,0.1032 -0.962563,0.1032 -0.43831,0 -0.850837,-0.1289 -0.412527,-0.129 -0.730517,-0.3954 -0.317989,-0.2664 -0.515659,-0.6789 -0.189074,-0.4211 -0.189074,-1.0056 0,-0.5414 0.309395,-1.0055 0.309395,-0.4641 0.962563,-0.8079 0.661762,-0.3437 1.693079,-0.55 1.039912,-0.2063 2.492351,-0.2406 l 0,-0.8938 q 0,-1.1861 -0.515659,-1.822 -0.507064,-0.6446 -1.512599,-0.6446 -0.61879,0 -1.0571,0.1719 -0.429716,0.1719 -0.730517,0.3781 -0.300801,0.2063 -0.489876,0.3782 -0.189074,0.1719 -0.317989,0.1719 -0.171886,0 -0.257829,-0.1547 l -0.146104,-0.2493 q 0.670357,-0.6703 1.409468,-1.0141 0.73911,-0.3438 1.67589,-0.3438 0.687545,0 1.203204,0.2235 0.515659,0.2148 0.850837,0.6274 0.343773,0.4039 0.515659,0.9883 0.171886,0.5758 0.171886,1.2892 l 0,5.5691 -0.326584,0 z m -3.437725,-0.4555 q 0.49847,0 0.910997,-0.1032 0.421122,-0.1117 0.773489,-0.3008 0.360961,-0.1976 0.670356,-0.4641 0.309395,-0.2664 0.610196,-0.5758 l 0,-2.2259 q -1.220392,0.034 -2.105606,0.1891 -0.87662,0.1461 -1.452439,0.4039 -0.567225,0.2578 -0.842243,0.6188 -0.266424,0.3524 -0.266424,0.8079 0,0.4297 0.137509,0.7477 0.146104,0.3094 0.37815,0.5156 0.232047,0.1977 0.541442,0.2922 0.309395,0.095 0.644573,0.095 z"
         style=""
         id="path21734" />
      <path
         d="m 23.803095,1013.4393 0,-8.5514 0.429715,0 q 0.146104,0 0.206264,0.06 0.06875,0.06 0.07735,0.2063 l 0.06875,1.8048 q 0.412527,-1.04 1.100072,-1.6244 0.687545,-0.593 1.69308,-0.593 0.386744,0 0.713328,0.086 0.326584,0.077 0.61879,0.232 l -0.111726,0.5672 q -0.02578,0.1375 -0.171886,0.1375 -0.05157,0 -0.146103,-0.034 -0.09454,-0.034 -0.240641,-0.077 -0.137509,-0.043 -0.343773,-0.077 -0.206263,-0.034 -0.472687,-0.034 -0.971157,0 -1.598542,0.6016 -0.61879,0.6016 -1.005534,1.736 l 0,5.5606 -0.81646,0 z"
         style=""
         id="path21736" />
      <path
         d="m 32.955769,1013.5768 q -0.868025,0 -1.357901,-0.4813 -0.481282,-0.4813 -0.481282,-1.4868 l 0,-5.8442 -1.228986,0 q -0.09454,0 -0.154698,-0.052 -0.06016,-0.052 -0.06016,-0.1461 l 0,-0.318 1.461033,-0.1031 0.206264,-3.0596 q 0.0086,-0.077 0.06016,-0.1375 0.06016,-0.06 0.154697,-0.06 l 0.386745,0 0,3.2659 2.690019,0 0,0.6101 -2.690019,0 0,5.8012 q 0,0.3524 0.08594,0.6102 0.09454,0.2492 0.249235,0.4125 0.163292,0.1633 0.378149,0.2407 0.214858,0.077 0.464093,0.077 0.309396,0 0.532848,-0.086 0.223452,-0.095 0.386744,-0.1977 0.163292,-0.1117 0.266423,-0.1977 0.103132,-0.095 0.163292,-0.095 0.06876,0 0.137509,0.086 l 0.223453,0.361 q -0.326584,0.361 -0.833649,0.5844 -0.49847,0.2149 -1.039912,0.2149 z"
         style=""
         id="path21738" />
      <path
         d="m 39.984576,1004.7504 q 0.721923,0 1.332119,0.2493 0.61879,0.2492 1.065695,0.7305 0.455498,0.4727 0.704733,1.1688 0.25783,0.6961 0.25783,1.5985 0,0.1891 -0.06016,0.2579 -0.05157,0.069 -0.171887,0.069 l -6.179311,0 0,0.1633 q 0,0.9626 0.223453,1.6931 0.223452,0.7305 0.635979,1.229 0.412527,0.4899 0.99694,0.7391 0.584413,0.2492 1.306336,0.2492 0.644573,0 1.11726,-0.1375 0.472687,-0.1461 0.790677,-0.318 0.326584,-0.1805 0.515659,-0.318 0.189075,-0.1461 0.275018,-0.1461 0.111726,0 0.171886,0.086 l 0.223452,0.275 q -0.206263,0.2578 -0.550036,0.4813 -0.335178,0.2234 -0.756299,0.3867 -0.412527,0.1547 -0.893809,0.2493 -0.472687,0.095 -0.953969,0.095 -0.87662,0 -1.598542,-0.3008 -0.721922,-0.3094 -1.237581,-0.8938 -0.515659,-0.5844 -0.799271,-1.4267 -0.275018,-0.8508 -0.275018,-1.9423 0,-0.9196 0.257829,-1.6931 0.266424,-0.782 0.7563,-1.3407 0.49847,-0.5672 1.211798,-0.8852 0.721922,-0.318 1.632919,-0.318 z m 0.0086,0.6102 q -0.661762,0 -1.186015,0.2063 -0.524253,0.2062 -0.910998,0.593 -0.378149,0.3867 -0.61879,0.9282 -0.232046,0.5414 -0.309395,1.2118 l 5.637869,0 q 0,-0.6876 -0.189075,-1.229 -0.189075,-0.5501 -0.532847,-0.9282 -0.343773,-0.3782 -0.825054,-0.5758 -0.481282,-0.2063 -1.065695,-0.2063 z"
         style=""
         id="path21740" />
      <path
         d="m 46.614548,1004.8879 0,8.5514 -0.81646,0 0,-8.5514 0.81646,0 z m 0.360961,-2.9478 q 0,0.1547 -0.06875,0.2922 -0.06016,0.1289 -0.163292,0.232 -0.103132,0.1032 -0.240641,0.1633 -0.137509,0.06 -0.292207,0.06 -0.154697,0 -0.292206,-0.06 -0.137509,-0.06 -0.240641,-0.1633 -0.103132,-0.1031 -0.163292,-0.232 -0.06016,-0.1375 -0.06016,-0.2922 0,-0.1547 0.06016,-0.2922 0.06016,-0.1461 0.163292,-0.2493 0.103132,-0.1031 0.240641,-0.1633 0.137509,-0.06 0.292206,-0.06 0.154698,0 0.292207,0.06 0.137509,0.06 0.240641,0.1633 0.103131,0.1032 0.163292,0.2493 0.06875,0.1375 0.06875,0.2922 z"
         style=""
         id="path21742" />
      <path
         d="m 49.653177,1013.4393 0,-8.5514 0.429716,0 q 0.146103,0 0.206263,0.06 0.06876,0.06 0.07735,0.2063 l 0.06876,1.8048 q 0.412527,-1.04 1.100072,-1.6244 0.687545,-0.593 1.693079,-0.593 0.386744,0 0.713328,0.086 0.326584,0.077 0.618791,0.232 l -0.111726,0.5672 q -0.02578,0.1375 -0.171887,0.1375 -0.05156,0 -0.146103,-0.034 -0.09454,-0.034 -0.240641,-0.077 -0.137509,-0.043 -0.343772,-0.077 -0.206264,-0.034 -0.472687,-0.034 -0.971158,0 -1.598542,0.6016 -0.618791,0.6016 -1.005535,1.736 l 0,5.5606 -0.81646,0 z"
         style=""
         id="path21744" />
      <path
         d="m 61.505944,1013.4393 q -0.257829,0 -0.31799,-0.2407 l -0.12032,-1.0914 q -0.352367,0.3437 -0.704734,0.6187 -0.343772,0.2751 -0.721922,0.4641 -0.37815,0.1891 -0.81646,0.2836 -0.43831,0.1032 -0.962563,0.1032 -0.43831,0 -0.850837,-0.1289 -0.412527,-0.129 -0.730516,-0.3954 -0.31799,-0.2664 -0.515659,-0.6789 -0.189075,-0.4211 -0.189075,-1.0056 0,-0.5414 0.309395,-1.0055 0.309396,-0.4641 0.962563,-0.8079 0.661763,-0.3437 1.69308,-0.55 1.039912,-0.2063 2.492351,-0.2406 l 0,-0.8938 q 0,-1.1861 -0.515659,-1.822 -0.507065,-0.6446 -1.512599,-0.6446 -0.618791,0 -1.057101,0.1719 -0.429715,0.1719 -0.730516,0.3781 -0.300801,0.2063 -0.489876,0.3782 -0.189075,0.1719 -0.31799,0.1719 -0.171886,0 -0.257829,-0.1547 l -0.146103,-0.2493 q 0.670356,-0.6703 1.409467,-1.0141 0.739111,-0.3438 1.675891,-0.3438 0.687545,0 1.203204,0.2235 0.515659,0.2148 0.850837,0.6274 0.343772,0.4039 0.515659,0.9883 0.171886,0.5758 0.171886,1.2892 l 0,5.5691 -0.326584,0 z m -3.437725,-0.4555 q 0.49847,0 0.910997,-0.1032 0.421121,-0.1117 0.773488,-0.3008 0.360961,-0.1976 0.670357,-0.4641 0.309395,-0.2664 0.610196,-0.5758 l 0,-2.2259 q -1.220393,0.034 -2.105607,0.1891 -0.87662,0.1461 -1.452439,0.4039 -0.567224,0.2578 -0.842242,0.6188 -0.266424,0.3524 -0.266424,0.8079 0,0.4297 0.137509,0.7477 0.146103,0.3094 0.37815,0.5156 0.232046,0.1977 0.541441,0.2922 0.309396,0.095 0.644574,0.095 z"
         style=""
         id="path21746" />
      <path
         d="m 73.807226,1013.4393 q -0.214858,0 -0.249235,-0.2235 l -0.08594,-1.3493 q -0.567225,0.7735 -1.332119,1.229 -0.756299,0.4555 -1.701673,0.4555 -1.57276,0 -2.457974,-1.0915 -0.87662,-1.0915 -0.87662,-3.2744 0,-0.9368 0.240641,-1.7447 0.249235,-0.8164 0.721922,-1.4094 0.481282,-0.6016 1.168827,-0.9454 0.696139,-0.3438 1.598542,-0.3438 0.868026,0 1.504005,0.3266 0.635979,0.318 1.100072,0.9368 l 0,-5.0707 0.825054,0 0,12.5048 -0.455499,0 z m -3.136924,-0.5501 q 0.850837,0 1.538382,-0.4383 0.687545,-0.4383 1.228987,-1.2204 l 0,-4.512 q -0.49847,-0.7305 -1.100072,-1.0313 -0.593008,-0.3008 -1.349307,-0.3008 -0.7563,0 -1.323525,0.275 -0.567224,0.275 -0.953968,0.7821 -0.37815,0.4985 -0.575819,1.2032 -0.189075,0.6961 -0.189075,1.5384 0,1.9079 0.704734,2.8103 0.704733,0.8938 2.019663,0.8938 z"
         style=""
         id="path21748" />
      <path
         d="m 80.371127,1004.7504 q 0.721923,0 1.332119,0.2493 0.61879,0.2492 1.065695,0.7305 0.455498,0.4727 0.704733,1.1688 0.25783,0.6961 0.25783,1.5985 0,0.1891 -0.06016,0.2579 -0.05156,0.069 -0.171886,0.069 l -6.179311,0 0,0.1633 q 0,0.9626 0.223452,1.6931 0.223453,0.7305 0.63598,1.229 0.412527,0.4899 0.99694,0.7391 0.584413,0.2492 1.306335,0.2492 0.644574,0 1.117261,-0.1375 0.472687,-0.1461 0.790677,-0.318 0.326584,-0.1805 0.515659,-0.318 0.189074,-0.1461 0.275018,-0.1461 0.111726,0 0.171886,0.086 l 0.223452,0.275 q -0.206264,0.2578 -0.550036,0.4813 -0.335178,0.2234 -0.7563,0.3867 -0.412527,0.1547 -0.893808,0.2493 -0.472687,0.095 -0.953969,0.095 -0.87662,0 -1.598542,-0.3008 -0.721922,-0.3094 -1.237581,-0.8938 -0.515659,-0.5844 -0.799271,-1.4267 -0.275018,-0.8508 -0.275018,-1.9423 0,-0.9196 0.257829,-1.6931 0.266424,-0.782 0.7563,-1.3407 0.49847,-0.5672 1.211798,-0.8852 0.721922,-0.318 1.632919,-0.318 z m 0.0086,0.6102 q -0.661762,0 -1.186015,0.2063 -0.524254,0.2062 -0.910998,0.593 -0.378149,0.3867 -0.61879,0.9282 -0.232047,0.5414 -0.309395,1.2118 l 5.637869,0 q 0,-0.6876 -0.189075,-1.229 -0.189075,-0.5501 -0.532848,-0.9282 -0.343772,-0.3782 -0.825054,-0.5758 -0.481281,-0.2063 -1.065694,-0.2063 z"
         style=""
         id="path21750" />
      <path
         d="m 99.915937,1007.3545 q 0,1.4095 -0.421121,2.5353 -0.421121,1.1259 -1.186015,1.9166 -0.764894,0.7906 -1.830589,1.2117 -1.065695,0.4212 -2.363436,0.4212 l -4.434665,0 0,-12.161 4.434665,0 q 1.297741,0 2.363436,0.4211 1.065695,0.4212 1.830589,1.2118 0.764894,0.7907 1.186015,1.9166 0.421121,1.1258 0.421121,2.5267 z m -0.910997,0 q 0,-1.272 -0.352367,-2.2689 -0.352367,-0.9969 -0.99694,-1.6845 -0.635979,-0.6875 -1.538382,-1.0485 -0.902403,-0.361 -2.002475,-0.361 l -3.549451,0 0,10.7343 3.549451,0 q 1.100072,0 2.002475,-0.3609 0.902403,-0.361 1.538382,-1.0485 0.644573,-0.6876 0.99694,-1.6845 0.352367,-0.997 0.352367,-2.2775 z"
         style=""
         id="path21752" />
      <path
         d="m 103.38401,1004.8879 0,8.5514 -0.81646,0 0,-8.5514 0.81646,0 z m 0.36096,-2.9478 q 0,0.1547 -0.0687,0.2922 -0.0602,0.1289 -0.16329,0.232 -0.10314,0.1032 -0.24065,0.1633 -0.1375,0.06 -0.2922,0.06 -0.1547,0 -0.29221,-0.06 -0.13751,-0.06 -0.24064,-0.1633 -0.10313,-0.1031 -0.16329,-0.232 -0.0602,-0.1375 -0.0602,-0.2922 0,-0.1547 0.0602,-0.2922 0.0602,-0.1461 0.16329,-0.2493 0.10313,-0.1031 0.24064,-0.1633 0.13751,-0.06 0.29221,-0.06 0.1547,0 0.2922,0.06 0.13751,0.06 0.24065,0.1633 0.10313,0.1032 0.16329,0.2493 0.0687,0.1375 0.0687,0.2922 z"
         style=""
         id="path21754" />
      <path
         d="m 106.42264,1013.4393 0,-8.5514 0.44691,0 q 0.22345,0 0.25783,0.2149 l 0.0773,1.2891 q 0.58441,-0.7391 1.3579,-1.186 0.78208,-0.4555 1.73605,-0.4555 0.70473,0 1.23758,0.2235 0.54144,0.2234 0.89381,0.6445 0.35237,0.4212 0.53285,1.0142 0.18048,0.593 0.18048,1.3407 l 0,5.466 -0.81646,0 0,-5.466 q 0,-1.2032 -0.55004,-1.8822 -0.55004,-0.6875 -1.68448,-0.6875 -0.84225,0 -1.56417,0.4383 -0.72192,0.4297 -1.28915,1.186 l 0,6.4114 -0.81646,0 z"
         style=""
         id="path21756" />
      <path
         d="m 115.72195,1013.4393 0,-12.5048 0.81646,0 0,5.4145 q 0.59301,-0.7306 1.34931,-1.1603 0.76489,-0.4383 1.71027,-0.4383 0.70473,0 1.23758,0.2235 0.54144,0.2234 0.89381,0.6445 0.35236,0.4212 0.53284,1.0142 0.18048,0.593 0.18048,1.3407 l 0,5.466 -0.81645,0 0,-5.466 q 0,-1.2032 -0.55004,-1.8822 -0.55004,-0.6875 -1.68449,-0.6875 -0.84224,0 -1.56416,0.4383 -0.72192,0.4297 -1.28915,1.186 l 0,6.4114 -0.81646,0 z"
         style=""
         id="path21758" />
      <path
         d="m 128.24414,1004.7504 q 0.72192,0 1.33211,0.2493 0.6188,0.2492 1.0657,0.7305 0.4555,0.4727 0.70473,1.1688 0.25783,0.6961 0.25783,1.5985 0,0.1891 -0.0602,0.2579 -0.0516,0.069 -0.17188,0.069 l -6.17931,0 0,0.1633 q 0,0.9626 0.22345,1.6931 0.22345,0.7305 0.63598,1.229 0.41252,0.4899 0.99694,0.7391 0.58441,0.2492 1.30633,0.2492 0.64458,0 1.11726,-0.1375 0.47269,-0.1461 0.79068,-0.318 0.32658,-0.1805 0.51566,-0.318 0.18907,-0.1461 0.27502,-0.1461 0.11172,0 0.17188,0.086 l 0.22345,0.275 q -0.20626,0.2578 -0.55003,0.4813 -0.33518,0.2234 -0.7563,0.3867 -0.41253,0.1547 -0.89381,0.2493 -0.47269,0.095 -0.95397,0.095 -0.87662,0 -1.59854,-0.3008 -0.72192,-0.3094 -1.23758,-0.8938 -0.51566,-0.5844 -0.79927,-1.4267 -0.27502,-0.8508 -0.27502,-1.9423 0,-0.9196 0.25783,-1.6931 0.26642,-0.782 0.7563,-1.3407 0.49847,-0.5672 1.2118,-0.8852 0.72192,-0.318 1.63292,-0.318 z m 0.009,0.6102 q -0.66176,0 -1.18601,0.2063 -0.52426,0.2062 -0.911,0.593 -0.37815,0.3867 -0.61879,0.9282 -0.23205,0.5414 -0.3094,1.2118 l 5.63787,0 q 0,-0.6876 -0.18907,-1.229 -0.18908,-0.5501 -0.53285,-0.9282 -0.34377,-0.3782 -0.82505,-0.5758 -0.48129,-0.2063 -1.0657,-0.2063 z"
         style=""
         id="path21760" />
      <path
         d="m 134.87412,1004.8879 0,8.5514 -0.81646,0 0,-8.5514 0.81646,0 z m 0.36096,-2.9478 q 0,0.1547 -0.0688,0.2922 -0.0602,0.1289 -0.16329,0.232 -0.10313,0.1032 -0.24064,0.1633 -0.13751,0.06 -0.29221,0.06 -0.1547,0 -0.2922,-0.06 -0.13751,-0.06 -0.24064,-0.1633 -0.10314,-0.1031 -0.1633,-0.232 -0.0602,-0.1375 -0.0602,-0.2922 0,-0.1547 0.0602,-0.2922 0.0602,-0.1461 0.1633,-0.2493 0.10313,-0.1031 0.24064,-0.1633 0.1375,-0.06 0.2922,-0.06 0.1547,0 0.29221,0.06 0.13751,0.06 0.24064,0.1633 0.10313,0.1032 0.16329,0.2493 0.0688,0.1375 0.0688,0.2922 z"
         style=""
         id="path21762" />
      <path
         d="m 137.91273,1013.4393 0,-8.5514 0.42972,0 q 0.1461,0 0.20626,0.06 0.0688,0.06 0.0773,0.2063 l 0.0688,1.8048 q 0.41252,-1.04 1.10007,-1.6244 0.68754,-0.593 1.69308,-0.593 0.38674,0 0.71333,0.086 0.32658,0.077 0.61879,0.232 l -0.11173,0.5672 q -0.0258,0.1375 -0.17189,0.1375 -0.0516,0 -0.1461,-0.034 -0.0945,-0.034 -0.24064,-0.077 -0.13751,-0.043 -0.34377,-0.077 -0.20627,-0.034 -0.47269,-0.034 -0.97116,0 -1.59854,0.6016 -0.61879,0.6016 -1.00554,1.736 l 0,5.5606 -0.81646,0 z"
         style=""
         id="path21764" />
      <path
         d="m 147.98501,1004.7504 q 0.91959,0 1.64151,0.318 0.73052,0.3094 1.22899,0.8852 0.49847,0.5758 0.7563,1.3923 0.26642,0.8079 0.26642,1.8134 0,1.0055 -0.26642,1.8134 -0.25783,0.8079 -0.7563,1.3837 -0.49847,0.5758 -1.22899,0.8852 -0.72192,0.3094 -1.64151,0.3094 -0.91959,0 -1.65011,-0.3094 -0.72192,-0.3094 -1.22898,-0.8852 -0.49847,-0.5758 -0.7649,-1.3837 -0.25783,-0.8079 -0.25783,-1.8134 0,-1.0055 0.25783,-1.8134 0.26643,-0.8165 0.7649,-1.3923 0.50706,-0.5758 1.22898,-0.8852 0.73052,-0.318 1.65011,-0.318 z m 0,8.156 q 0.76489,0 1.33212,-0.2578 0.57582,-0.2664 0.95397,-0.7563 0.38674,-0.4899 0.57582,-1.1774 0.18907,-0.6962 0.18907,-1.5556 0,-0.8508 -0.18907,-1.547 -0.18908,-0.6961 -0.57582,-1.186 -0.37815,-0.4985 -0.95397,-0.7649 -0.56723,-0.2664 -1.33212,-0.2664 -0.76489,0 -1.34071,0.2664 -0.56723,0.2664 -0.95397,0.7649 -0.37815,0.4899 -0.57582,1.186 -0.18907,0.6962 -0.18907,1.547 0,0.8594 0.18907,1.5556 0.19767,0.6875 0.57582,1.1774 0.38674,0.4899 0.95397,0.7563 0.57582,0.2578 1.34071,0.2578 z"
         style=""
         id="path21766" />
      <path
         d="m 167.99901,1007.3545 q 0,1.4095 -0.42112,2.5353 -0.42112,1.1259 -1.18601,1.9166 -0.7649,0.7906 -1.83059,1.2117 -1.0657,0.4212 -2.36344,0.4212 l -4.43466,0 0,-12.161 4.43466,0 q 1.29774,0 2.36344,0.4211 1.06569,0.4212 1.83059,1.2118 0.76489,0.7907 1.18601,1.9166 0.42112,1.1258 0.42112,2.5267 z m -0.91099,0 q 0,-1.272 -0.35237,-2.2689 -0.35237,-0.9969 -0.99694,-1.6845 -0.63598,-0.6875 -1.53838,-1.0485 -0.90241,-0.361 -2.00248,-0.361 l -3.54945,0 0,10.7343 3.54945,0 q 1.10007,0 2.00248,-0.3609 0.9024,-0.361 1.53838,-1.0485 0.64457,-0.6876 0.99694,-1.6845 0.35237,-0.997 0.35237,-2.2775 z"
         style=""
         id="path21768" />
      <path
         d="m 171.46709,1004.8879 0,8.5514 -0.81646,0 0,-8.5514 0.81646,0 z m 0.36096,-2.9478 q 0,0.1547 -0.0688,0.2922 -0.0602,0.1289 -0.16329,0.232 -0.10313,0.1032 -0.24064,0.1633 -0.13751,0.06 -0.29221,0.06 -0.15469,0 -0.2922,-0.06 -0.13751,-0.06 -0.24064,-0.1633 -0.10313,-0.1031 -0.1633,-0.232 -0.0602,-0.1375 -0.0602,-0.2922 0,-0.1547 0.0602,-0.2922 0.0602,-0.1461 0.1633,-0.2493 0.10313,-0.1031 0.24064,-0.1633 0.13751,-0.06 0.2922,-0.06 0.1547,0 0.29221,0.06 0.13751,0.06 0.24064,0.1633 0.10313,0.1032 0.16329,0.2493 0.0688,0.1375 0.0688,0.2922 z"
         style=""
         id="path21770" />
      <path
         d="m 177.32464,1004.7418 q 0.55863,0 1.03132,0.1375 0.48128,0.1375 0.85943,0.3868 l 2.19155,0 0,0.2836 q 0,0.2148 -0.24064,0.232 l -1.29774,0.095 q 0.24064,0.3266 0.36955,0.7391 0.12892,0.4039 0.12892,0.868 0,0.6188 -0.22346,1.1259 -0.22345,0.4984 -0.62738,0.8594 -0.39534,0.3524 -0.95397,0.55 -0.55863,0.1977 -1.23758,0.1977 -0.73911,0 -1.34071,-0.2234 -0.36096,0.2062 -0.56723,0.4898 -0.20626,0.2836 -0.20626,0.5501 0,0.3695 0.25783,0.5672 0.25783,0.1977 0.67895,0.2922 0.42971,0.086 0.97116,0.1117 0.55003,0.026 1.10866,0.06 0.56723,0.026 1.10867,0.1031 0.55003,0.077 0.97116,0.275 0.42971,0.1891 0.68754,0.5415 0.25783,0.3437 0.25783,0.9196 0,0.5328 -0.26642,1.0227 -0.26643,0.4899 -0.77349,0.868 -0.49847,0.3782 -1.2118,0.6016 -0.71333,0.2321 -1.59854,0.2321 -0.9024,0 -1.58136,-0.1891 -0.67895,-0.1805 -1.14304,-0.4985 -0.4555,-0.3094 -0.68754,-0.7219 -0.23205,-0.4125 -0.23205,-0.8766 0,-0.679 0.4469,-1.1689 0.44691,-0.4898 1.22899,-0.7563 -0.42972,-0.1461 -0.68754,-0.4211 -0.24924,-0.275 -0.24924,-0.7649 0,-0.1804 0.0688,-0.3781 0.0688,-0.1977 0.20626,-0.3868 0.13751,-0.1976 0.32658,-0.3695 0.19767,-0.1719 0.4555,-0.3094 -0.6102,-0.3524 -0.95397,-0.9368 -0.33518,-0.5844 -0.33518,-1.3665 0,-0.6188 0.21486,-1.1172 0.22345,-0.5071 0.61879,-0.8681 0.40394,-0.3609 0.97116,-0.5586 0.56722,-0.1977 1.25477,-0.1977 z m 3.1713,9.2733 q 0,-0.4039 -0.21486,-0.6446 -0.20626,-0.2492 -0.55863,-0.3867 -0.35236,-0.1375 -0.81646,-0.1891 -0.4555,-0.06 -0.96256,-0.086 -0.49847,-0.026 -1.00553,-0.052 -0.50707,-0.026 -0.94538,-0.1031 -0.32658,0.1289 -0.6102,0.3008 -0.27501,0.1632 -0.47268,0.3781 -0.19767,0.2063 -0.3094,0.4555 -0.11172,0.2578 -0.11172,0.5586 0,0.3782 0.18907,0.6962 0.19767,0.3266 0.56723,0.5586 0.37815,0.2406 0.91959,0.3782 0.54144,0.1375 1.24617,0.1375 0.65317,0 1.2118,-0.1461 0.56723,-0.1461 0.97975,-0.4126 0.42112,-0.2664 0.65317,-0.6359 0.24064,-0.3696 0.24064,-0.8079 z m -3.1713,-4.3573 q 0.55004,0 0.97975,-0.1547 0.42972,-0.1633 0.72192,-0.4469 0.29221,-0.2836 0.43831,-0.679 0.1547,-0.3953 0.1547,-0.8766 0,-0.4813 -0.1547,-0.8766 -0.15469,-0.404 -0.4555,-0.6876 -0.2922,-0.2836 -0.72192,-0.4383 -0.42112,-0.1547 -0.96256,-0.1547 -0.54144,0 -0.97116,0.1547 -0.42971,0.1547 -0.73051,0.4383 -0.29221,0.2836 -0.44691,0.6876 -0.1547,0.3953 -0.1547,0.8766 0,0.4813 0.1547,0.8766 0.1547,0.3954 0.44691,0.679 0.3008,0.2836 0.73051,0.4469 0.42972,0.1547 0.97116,0.1547 z"
         style=""
         id="path21772" />
      <path
         d="m 184.22427,1004.8879 0,8.5514 -0.81646,0 0,-8.5514 0.81646,0 z m 0.36096,-2.9478 q 0,0.1547 -0.0687,0.2922 -0.0602,0.1289 -0.16329,0.232 -0.10313,0.1032 -0.24064,0.1633 -0.13751,0.06 -0.29221,0.06 -0.1547,0 -0.29221,-0.06 -0.1375,-0.06 -0.24064,-0.1633 -0.10313,-0.1031 -0.16329,-0.232 -0.0602,-0.1375 -0.0602,-0.2922 0,-0.1547 0.0602,-0.2922 0.0602,-0.1461 0.16329,-0.2493 0.10314,-0.1031 0.24064,-0.1633 0.13751,-0.06 0.29221,-0.06 0.1547,0 0.29221,0.06 0.13751,0.06 0.24064,0.1633 0.10313,0.1032 0.16329,0.2493 0.0687,0.1375 0.0687,0.2922 z"
         style=""
         id="path21774" />
      <path
         d="m 189.60054,1013.5768 q -0.86802,0 -1.3579,-0.4813 -0.48128,-0.4813 -0.48128,-1.4868 l 0,-5.8442 -1.22898,0 q -0.0945,0 -0.1547,-0.052 -0.0602,-0.052 -0.0602,-0.1461 l 0,-0.318 1.46103,-0.1031 0.20626,-3.0596 q 0.009,-0.077 0.0602,-0.1375 0.0602,-0.06 0.1547,-0.06 l 0.38675,0 0,3.2659 2.69002,0 0,0.6101 -2.69002,0 0,5.8012 q 0,0.3524 0.0859,0.6102 0.0945,0.2492 0.24923,0.4125 0.1633,0.1633 0.37815,0.2407 0.21486,0.077 0.4641,0.077 0.30939,0 0.53284,-0.086 0.22346,-0.095 0.38675,-0.1977 0.16329,-0.1117 0.26642,-0.1977 0.10313,-0.095 0.16329,-0.095 0.0688,0 0.13751,0.086 l 0.22345,0.361 q -0.32658,0.361 -0.83364,0.5844 -0.49847,0.2149 -1.03992,0.2149 z"
         style=""
         id="path21776" />
      <path
         d="m 198.86387,1013.4393 q -0.25783,0 -0.31799,-0.2407 l -0.12032,-1.0914 q -0.35237,0.3437 -0.70474,0.6187 -0.34377,0.2751 -0.72192,0.4641 -0.37815,0.1891 -0.81646,0.2836 -0.43831,0.1032 -0.96256,0.1032 -0.43831,0 -0.85084,-0.1289 -0.41253,-0.129 -0.73052,-0.3954 -0.31799,-0.2664 -0.51566,-0.6789 -0.18907,-0.4211 -0.18907,-1.0056 0,-0.5414 0.3094,-1.0055 0.30939,-0.4641 0.96256,-0.8079 0.66176,-0.3437 1.69308,-0.55 1.03991,-0.2063 2.49235,-0.2406 l 0,-0.8938 q 0,-1.1861 -0.51566,-1.822 -0.50706,-0.6446 -1.5126,-0.6446 -0.61879,0 -1.0571,0.1719 -0.42972,0.1719 -0.73052,0.3781 -0.3008,0.2063 -0.48987,0.3782 -0.18908,0.1719 -0.31799,0.1719 -0.17189,0 -0.25783,-0.1547 l -0.1461,-0.2493 q 0.67035,-0.6703 1.40946,-1.0141 0.73911,-0.3438 1.67589,-0.3438 0.68755,0 1.20321,0.2235 0.51566,0.2148 0.85083,0.6274 0.34378,0.4039 0.51566,0.9883 0.17189,0.5758 0.17189,1.2892 l 0,5.5691 -0.32658,0 z m -3.43773,-0.4555 q 0.49847,0 0.911,-0.1032 0.42112,-0.1117 0.77349,-0.3008 0.36096,-0.1976 0.67035,-0.4641 0.3094,-0.2664 0.6102,-0.5758 l 0,-2.2259 q -1.22039,0.034 -2.10561,0.1891 -0.87662,0.1461 -1.45244,0.4039 -0.56722,0.2578 -0.84224,0.6188 -0.26642,0.3524 -0.26642,0.8079 0,0.4297 0.13751,0.7477 0.1461,0.3094 0.37815,0.5156 0.23204,0.1977 0.54144,0.2922 0.30939,0.095 0.64457,0.095 z"
         style=""
         id="path21778" />
      <path
         d="m 202.82289,1000.9345 0,12.5048 -0.81646,0 0,-12.5048 0.81646,0 z"
         style=""
         id="path21780" />
    </g>
  </g>
</svg>
